<svg version="1.2" xmlns="http://www.w3.org/2000/svg" viewBox="0 0 80 68" width="80" height="68">
	<title>Proyecto nuevo</title>
	<defs>
		<radialGradient id="g1" cx="0" cy="0" r="1" gradientUnits="userSpaceOnUse" gradientTransform="matrix(58.191,0,0,58.191,72.308,33.775)">
			<stop offset=".01" stop-color="#ffffff" stop-opacity="1"/>
			<stop offset=".03" stop-color="#cbffff" stop-opacity="1"/>
			<stop offset=".06" stop-color="#96ffff" stop-opacity="1"/>
			<stop offset=".08" stop-color="#68ffff" stop-opacity="1"/>
			<stop offset=".11" stop-color="#43ffff" stop-opacity="1"/>
			<stop offset=".14" stop-color="#25ffff" stop-opacity="1"/>
			<stop offset=".16" stop-color="#11ffff" stop-opacity="1"/>
			<stop offset=".19" stop-color="#04ffff" stop-opacity="1"/>
			<stop offset=".22" stop-color="#00ffff" stop-opacity="1"/>
			<stop offset="1" stop-color="#0000ff" stop-opacity="0"/>
		</radialGradient>
	</defs>
	<style>
		.s0 { fill: #333333 } 
		.s1 { fill: #333333 } 
		.s2 { fill: #333333 } 
	</style>
	<path id="Layer" fill-rule="evenodd" class="s0" d="m56.5 40.4c-1.1 0.3-4 0.4-4 0.4l-0.4 1.2c0 0 1.5-0.2 2.5 0 0 0 0.4-0.1 0.4 0.3q0 0.2 0 0.2 0 0.2 0 0.3 0 0.1 0 0.2 0 0.1 0 0.2c0 0.1-0.1 0.2-0.4 0.3-0.4 0.1-3.1 0.2-3.1 0.2l-0.5 1.5c0 0-0.2 0.3 0.2 0.3 0.4-0.2 3.2-0.7 3.6-0.6 0.4 0.1 0.8 0.6 0.7 1.1-0.1 0.6-3 2.4-4.7 2.3 0 0-0.9 0.1-1.7-1.2-0.7-1.1 0.2-3.4 0.2-3.4 0 0-0.4-1-0.1-1.4 0 0 0.2-0.1 0.8-0.2l0.7-1.5c0 0-0.8 0.1-1.3-0.5-0.4-0.6-0.4-0.9-0.1-1 0.4-0.2 3.7-0.8 5.9-0.7 0 0 0.9-0.1 1.5 1.3 0 0 0.3 0.6-0.2 0.7zm-8.6 5.6c-0.3 0.7-1.1 1.5-2 1-1-0.4-2.5-3.6-2.5-3.6 0 0-0.6-1.1-0.6-1.1 0 0-0.2-0.2-0.2 1-0.1 1.3 0 3.8-0.6 4.2-0.4 0.3-1 0.2-1.3-0.3-0.3-0.5-0.4-1.5-0.3-3.4 0.2-1.8 0.7-3.8 1.2-4.4 0.6-0.7 1-0.2 1.2-0.1 0 0 0.7 0.7 1.9 2.7l0.3 0.3c0 0 1.1 1.9 1.2 1.9 0 0 0.1 0.1 0.1 0 0.2 0 0.1-0.6 0.1-0.6 0 0-0.2-2-1.2-5.5 0 0-0.1-0.4-0.1-0.8 0.1-0.4 0.5-0.3 0.5-0.3 0 0 1.6 0.9 2.3 3.4 0.8 2.6 0.3 4.9 0 5.6zm-7.6-6.6c-0.2 0.3-0.3 0.7-0.9 0.7 0 0-6.3 0.5-6.6 1 0 0-0.3 0.2 0.1 0.3 0.3 0 1.8 0.2 2.4 0.3 0.8 0 3.3 0 4.1 1.2 0 0 0.6 0.5 0.5 1.7 0 1.2-0.2 1.6-0.7 2.1-0.5 0.4-4.7 2.4-7.5-0.6 0 0-1.2-1.4 0.4-2.5 0 0 1.3-0.8 4.4 0.1 0 0 0.9 0.3 0.9 0.7 0 0.3-0.8 0.8-1.8 0.7-1 0-1.8-0.5-1.6-0.4-0.2-0.1-1.2-0.6-1.6-0.2-0.3 0.4-0.2 0.7 0.2 1 0.9 0.5 4.6 0.3 5.7-1 0 0 0.4-0.4-0.2-0.9-0.7-0.3-2.6-0.5-3.3-0.6-0.8 0-3.4 0-3.8-0.7 0 0-0.3-0.5 0-1.8 0.5-1.5 3.6-2 4.9-2.1 0 0 3.7-0.2 4.4 0.6q0 0 0 0.1 0 0.1 0 0.1 0 0 0 0.1 0 0.1 0 0.1zm-6.3 5.3q0 0 0 0 0 0 0 0zm-4.2 3.1c-0.4 0.3-1.4 0.2-1.6-0.2-0.3-0.3-0.4-1.7-0.4-3.8 0.1-2 0.2-4.6 0.6-5.1 0.5-0.4 0.8 0 1 0.3 0.2 0.2 0.4 0.6 0.4 1.2 0.1 0.7 0.2 4.2 0.2 4.2 0 0 0.2 3.1-0.2 3.4zm1-11.1c-1.3 0.4-2.2 0.2-3-0.1-0.3 0.6-0.5 0.8-0.7 0.8-0.4 0-0.7-0.6-0.8-0.7-0.1-0.2-0.3-0.4 0-1-0.8-0.7-0.8-1.6-0.7-2.2 0.2-0.7 1.5-3.3 5.2-3.6 0 0 1.8-0.2 2.2 0.8 0 0 1.8 0 1.8 1.6 0 1.6-2 3.6-4 4.4zm-3.5-3.6c-0.4 0.6-0.4 1-0.3 1.2 0.5-0.6 1.3-1.7 2.4-2.5-0.9 0.1-1.6 0.5-2.1 1.3zm5.1-1c-1.1 0.1-3 1.7-3.9 3.1 1.4 0.2 3.8 0.1 4.8-2 0 0 0.5-1.4-0.9-1.1zm32.3 12.4c-0.7 1.3-2.7 3.9-5.4 3.2-0.9 2.2-1.6 4.4-2 7.7 0 0-0.1 0.6-0.7 0.3-0.5-0.2-1.3-1-1.5-2.2-0.2-1.6 0.5-4.2 1.9-7.3-0.4-0.7-0.6-1.7-0.4-3 0 0 0.4-2.6 2.9-4.9 0 0 0.3-0.3 0.5-0.2 0.2 0.1 0.1 0.9-0.1 1.3-0.1 0.4-1.3 2.4-1.3 2.4 0 0-0.7 1.3-0.5 2.4 1.4-2 4.4-6.3 6.3-5 0.6 0.5 0.9 1.5 0.9 2.6 0 0.9-0.2 2-0.6 2.7zm-0.6-3.3c0 0-0.1-0.9-0.9 0.1-0.7 0.7-1.9 2.2-2.9 4.2 1-0.2 2-0.8 2.4-1 0.5-0.5 1.6-1.7 1.4-3.3zm-37.2 1.1c-0.1 1.8-0.8 5-5.8 6.5-3.4 1.1-6.5 0.5-8.2 0.1-0.1 0.7-0.2 1-0.2 1.1-0.2 0.2-1.3 0.8-1.9-0.1-0.2-0.4-0.4-1.2-0.5-1.9-3.8-1.8-5.6-4.4-5.7-4.5-0.1-0.1-1-1-0.1-2.1 0.9-1.1 3.6-2.1 6-2.5 0.1-2.1 0.3-3.7 0.6-4.4 0.4-0.9 0.8-0.1 1.2 0.5 0.3 0.4 0.5 2.2 0.6 3.7 1.5-0.1 2.5 0 4.3 0.3 2.3 0.4 3.8 1.7 3.7 3-0.1 1.3-1.3 1.9-1.8 1.9-0.5 0.1-1.2-0.3-1.2-0.3-0.6-0.2 0-0.5 0.5-0.7 0.7-0.4 0.5-0.7 0.5-0.7-0.2-0.8-3.2-1.3-6.2-1.3 0 1.7 0.1 4.5 0.2 6.1 2 0.4 3.6 0.3 3.6 0.3 0 0 7.6-0.2 7.8-5.1 0.3-5-7.5-9.7-13.4-11.2-5.7-1.5-9-0.4-9.3-0.3-0.3 0.1 0 0.2 0 0.2q0.1 0.1 0.2 0.1 0.1 0 0.2 0 0.1 0 0.2 0.1 0.1 0 0.2 0.1c0.6 0.1 0.2 0.4 0.2 0.4-1 0.3-2.2 0.1-2.3-0.3-0.2-0.5 0.1-0.9 0.5-1.4 0.4-0.7 0.9-0.7 0.9-0.7 7.1-2.4 15.8 2.1 15.8 2.1 8.2 4.1 9.6 9 9.4 11zm-21.5-0.3c-0.9 0.4-0.3 1-0.3 1 1.6 1.6 3.4 2.6 5.2 3.3 0.2-2.9 0.2-3.8 0.2-5.3-2.8 0.2-4.4 0.6-5.1 1z"/>
	<path id="Layer" class="s0" d="m79.8 41.4v1q0 0.1 0 0.2 0 0.1-0.1 0.1 0 0.1-0.1 0.1 0 0-0.2 0h-4.8q0 0.4 0 0.7 0 0.5 0 1 0 0.6 0 1.1 0 0.5-0.1 1 0 0.5-0.1 1.1 0 0 0 0.1 0 0-0.1 0.1-0.1 0.1-0.1 0.1-0.1 0-0.2 0h-1q0 0-0.1 0 0 0-0.1 0 0 0 0-0.1 0 0-0.1 0 0-0.1 0-0.1-0.1 0-0.1-0.1 0 0 0 0 0 0 0-0.1 0.1-0.5 0.1-1 0.1-0.6 0.1-1 0-0.5 0-1.1 0-0.5 0-1 0-0.3 0-0.7h-4.7q-0.1 0-0.2 0-0.1 0-0.1-0.1-0.1 0-0.1-0.1-0.1-0.1-0.1-0.2v-1q0-0.1 0.1-0.2 0 0 0.1-0.1 0 0 0.1 0 0.1-0.1 0.2-0.1h4.7q-0.1-0.6-0.1-1.2-0.1-0.6-0.2-1.3-0.1-0.6-0.1-1.2-0.1-0.6-0.3-1.2 0 0 0 0 0-0.1 0-0.2 0 0 0.1 0 0 0 0-0.1 0.1 0 0.1 0 0-0.1 0-0.1 0.1 0 0.1 0 0 0 0 0h1.2q0.1 0 0.1 0 0.1 0 0.2 0.1 0 0 0 0.1 0 0 0.1 0.1 0 0.7 0.2 1.2 0 0.7 0.2 1.3 0 0.6 0.1 1.3 0 0.6 0.1 1.2h4.8q0.1 0 0.2 0.1 0.1 0 0.1 0 0.1 0.1 0.1 0.1 0 0.1 0 0.2z"/>
	<path id="Layer" class="s1" d=""/>
	<path id="Layer" fill-rule="evenodd" class="s2" d="m73.3 33.4q0 0 0 0.1 0 0 0 0 0 0.1-0.1 0.2 0 0 0 0 0 0-0.1 0 0 0.1-0.1 0.1 0 0 0 0c-0.1 0-1.2 0-1.3 0q0 0-0.1-0.1 0 0 0 0-0.1-0.1-0.1-0.2c-1.2-2.9-2.8-5.6-4.9-8-2-2.4-4.3-4.5-6.9-6.3-2.5-1.7-5.4-3.1-8.4-4-2.9-0.9-6.1-1.3-9.1-1.3q-4 0-7.7 0.9c-2.6 0.7-4.9 1.6-7.2 2.8q-3.5 1.9-6.4 4.5c-1.9 1.7-3.6 3.7-5.1 5.9q0 0-0.1 0 0 0.1-0.1 0.1 0 0.1 0 0.1-0.1 0-0.2 0 0 0 0 0-0.1 0-0.1 0l-0.9-0.3q-0.1 0-0.1 0 0-0.1-0.1-0.1 0-0.1 0-0.1-0.1 0-0.1 0 0-0.1 0-0.2 0 0 0 0 0-0.1 0-0.2 0 0 0.1 0c3.4-5.1 8.1-9.3 13.6-11.9 5.5-2.6 11.7-3.7 17.8-3.1 6 0.7 11.8 2.9 16.7 6.6 4.9 3.7 8.7 8.7 11 14.4q0 0.1 0 0.1zm-1.6 0.3q0 0 0 0zm0 0q0 0 0 0 0 0 0 0 0 0 0 0zm-56.3-5.8q0 0 0 0 0 0 0 0z"/>
</svg>