<svg version="1.2" xmlns="http://www.w3.org/2000/svg" viewBox="0 0 80 68" width="80" height="68">
	<title>Proyecto nuevo</title>
	<style>
		.s0 { fill: #ffffff } 
	</style>
	<g id="Layer">
		<g id="Layer">
			<path id="Layer" fill-rule="evenodd" class="s0" d="m7.6 25q-0.3 0-0.4-0.1-0.2-0.2-0.2-0.5v-17.2q0-0.3 0.2-0.5 0.1-0.1 0.4-0.1h1.9q0.6 0 0.7 0.6l0.2 0.6q0.7-0.7 1.8-1.2 1.1-0.4 2.2-0.4 2.5 0 4 1.8 1.4 1.9 1.4 5 0 2.1-0.7 3.7-0.7 1.6-2 2.5-1.2 0.8-2.8 0.8-1 0-2-0.3-0.9-0.4-1.6-0.9v5.6q0 0.3-0.1 0.5-0.2 0.1-0.5 0.1zm5.6-7.8q1.4 0 2.1-1 0.7-1 0.7-3.1 0-2.1-0.7-3.1-0.7-1-2.1-1-1.3 0-2.5 0.7v6.8q1.1 0.7 2.5 0.7z"/>
			<path id="Layer" class="s0" d="m22.9 19.7q-0.3 0-0.5-0.1-0.1-0.2-0.1-0.5v-11.9q0-0.3 0.1-0.5 0.2-0.1 0.5-0.1h1.9q0.5 0 0.7 0.6l0.3 1.3q1-1.1 1.9-1.6 0.9-0.4 2-0.4h0.3q0.4 0 0.5 0.1 0.2 0.1 0.2 0.5v2.2q0 0.3-0.2 0.4-0.1 0.2-0.5 0.2-0.1 0-0.4 0-0.3 0-0.7-0.1-0.6 0-1.5 0.2-0.8 0.2-1.4 0.4v8.7q0 0.3-0.1 0.5-0.2 0.1-0.5 0.1c0 0-2.5 0-2.5 0z"/>
			<path id="Layer" class="s0" d="m34.2 4.6q-1 0-1.6-0.6-0.6-0.5-0.6-1.5 0-0.9 0.6-1.4 0.6-0.6 1.6-0.6 1 0 1.6 0.6 0.5 0.5 0.5 1.4 0 1-0.5 1.5-0.6 0.6-1.6 0.6zm-1.2 15.1q-0.4 0-0.5-0.1-0.2-0.2-0.2-0.5v-11.9q0-0.3 0.2-0.5 0.1-0.1 0.5-0.1h2.4q0.4 0 0.5 0.1 0.2 0.2 0.2 0.5v11.9q0 0.3-0.2 0.5-0.1 0.1-0.5 0.1c0 0-2.4 0-2.4 0z"/>
			<path id="Layer" class="s0" d="m39.8 19.7q-0.3 0-0.5-0.1-0.1-0.2-0.1-0.5v-11.9q0-0.3 0.1-0.5 0.2-0.1 0.5-0.1h1.9q0.5 0 0.7 0.6l0.2 0.6q1.3-0.9 2.4-1.2 1.1-0.4 2.3-0.4 2.3 0 3.2 1.6 1.3-0.8 2.5-1.2 1.1-0.4 2.3-0.4 1.8 0 2.8 1 1 1 1 2.8v9.1q0 0.3-0.1 0.5-0.2 0.1-0.5 0.1h-2.5q-0.3 0-0.5-0.1-0.1-0.2-0.1-0.5v-8.3q0-1.7-1.6-1.7-1.4 0-2.8 0.6v9.4q0 0.3-0.1 0.5-0.2 0.1-0.5 0.1h-2.5q-0.3 0-0.5-0.1-0.1-0.2-0.1-0.5v-8.3q0-1.7-1.6-1.7-1.4 0-2.8 0.7v9.3q0 0.3-0.1 0.5-0.2 0.1-0.5 0.1c0 0-2.5 0-2.5 0z"/>
			<path id="Layer" fill-rule="evenodd" class="s0" d="m67.9 20.1c-2.1 0-3.7-0.5-5-1.8-0.8-0.8-1.6-2.4-1.6-5.1 0-2.2 0.7-3.9 1.8-5.1 1.2-1.2 2.9-1.8 4.5-1.8 2 0 3.2 0.5 4.1 1.4 0.2 0.1 1.1 1.1 1.1 2.7 0 0.5 0 1-0.3 1.8-0.3 0.5-0.6 0.9-0.7 0.9-1.5 1.4-4.5 1.3-5.5 1.3l-1.6-0.3c0.1 1.2 0.4 2.1 1.1 2.6 0.6 0.4 1.3 0.6 2.8 0.6q1.1 0 2.9-0.4c0.1-0.1 0.2-0.1 0.3-0.1 0 0 0.1 0 0.2 0 0.1 0.1 0.3 0.2 0.3 0.6v1.1q0 0.5-0.1 0.6-0.1 0.2-0.5 0.3c-1.3 0.5-2.5 0.7-3.8 0.7zm1.5-9.6c0-1.2-0.8-1.6-1.9-1.6-0.7 0-1.4 0.2-1.9 0.8-0.5 0.5-0.8 1.2-0.9 2.2 0 0 1.9 0.4 3.3 0.1 0.8-0.1 1.4-0.5 1.4-1.5z"/>
		</g>
		<g id="Layer">
			<path id="Layer" fill-rule="evenodd" class="s0" d="m52.1 46.7c-2.2 0-3.9-0.5-5.3-1.9-0.8-0.9-1.7-2.6-1.7-5.5 0-2.3 0.8-4.1 1.9-5.3 1.2-1.3 3-1.9 4.8-1.9 2.1 0 3.4 0.5 4.3 1.4 0.2 0.2 1.2 1.2 1.2 2.8 0 0.6 0 1.2-0.4 2-0.2 0.5-0.6 0.9-0.7 1-1.6 1.5-4.8 1.4-5.8 1.3l-1.7-0.3c0.1 1.2 0.4 2.2 1.2 2.7 0.6 0.5 1.4 0.7 2.9 0.7q1.2 0 3.1-0.5c0.1 0 0.2 0 0.3-0.1 0 0 0.1 0 0.2 0.1 0.2 0 0.3 0.1 0.3 0.5v1.3q0 0.4-0.1 0.6-0.1 0.2-0.5 0.3c-1.3 0.5-2.6 0.8-4 0.8zm1.6-10.2c0-1.3-0.9-1.7-2.1-1.7-0.7 0-1.4 0.3-1.9 0.8-0.5 0.5-0.8 1.4-1 2.4 0 0 2.1 0.3 3.5 0.1 0.8-0.1 1.5-0.5 1.5-1.6z"/>
			<path id="Layer" class="s0" d="m12.8 46.2q-0.3 0-0.5 0-0.1-0.1-0.3-0.2-0.1-0.2-0.2-0.5l-4.6-12q-0.1-0.3-0.1-0.4-0.1-0.2-0.1-0.3 0-0.4 0.5-0.4h2.7q0.5 0 0.7 0.1 0.2 0.2 0.3 0.6l2.8 9.6 2.8-9.6q0.1-0.4 0.3-0.6 0.2-0.1 0.6-0.1h2.7q0.5 0 0.5 0.4 0 0.1-0.1 0.3 0 0.1-0.1 0.3l-4.6 12.1q-0.1 0.3-0.2 0.5-0.2 0.1-0.3 0.2-0.2 0-0.5 0c0 0-2.3 0-2.3 0z"/>
			<path id="Layer" class="s0" d="m24.6 30.2q-1.1 0-1.7-0.5-0.6-0.6-0.6-1.6 0-1 0.6-1.5 0.6-0.6 1.7-0.6 1 0 1.6 0.6 0.6 0.5 0.6 1.5 0 1-0.6 1.6-0.6 0.5-1.6 0.5zm-1.3 16q-0.4 0-0.6-0.1-0.1-0.2-0.1-0.5v-12.6q0-0.3 0.1-0.5 0.2-0.1 0.6-0.1h2.6q0.3 0 0.5 0.1 0.1 0.2 0.1 0.5v12.6q0 0.3-0.1 0.5-0.2 0.1-0.5 0.1z"/>
			<path id="Layer" fill-rule="evenodd" class="s0" d="m34.8 46.5q-1.8 0-3.1-0.9-1.3-0.9-2-2.5-0.6-1.6-0.6-3.7 0-3.4 1.6-5.4 1.5-2 4.2-2 2.1 0 3.7 1.2v-6.4q0-0.4 0.1-0.5 0.2-0.1 0.5-0.2h2.6q0.4 0 0.6 0.2 0.1 0.1 0.1 0.5v18.8q0 0.3-0.1 0.5-0.2 0.1-0.6 0.1h-2.1q-0.4 0-0.5-0.1-0.2-0.1-0.3-0.5l-0.2-0.6q-1.6 1.5-3.9 1.5zm1.3-2.9q1.3 0 2.5-0.8v-7.2q-1.2-0.7-2.7-0.7-1.4 0-2.1 1.1-0.7 1.1-0.7 3.3 0 2.1 0.7 3.2 0.7 1.1 2.3 1.1z"/>
			<path id="Layer" fill-rule="evenodd" class="s0" d="m66 46.7q-3.2 0-5-2-1.8-1.9-1.8-5.4 0-3.5 1.8-5.4 1.8-1.9 5-1.9 3.2 0 5 1.9 1.8 1.9 1.8 5.4 0 3.5-1.8 5.4-1.8 2-5 2zm0-3.1q2.8 0 2.8-4.3 0-4.3-2.8-4.3-2.8 0-2.8 4.3 0 4.3 2.8 4.3z"/>
		</g>
		<g id="Layer">
			<path id="Layer" fill-rule="evenodd" class="s0" d="m7.1 52.9v0.2q0.1 0.2 0.3 0.5c8.6 8.4 20 13.5 32.6 13.5 9.1 0 19.5-3.1 26.8-8.9 1.1-0.9 0.1-2.4-1.1-1.8-8.1 3.7-16.9 5.5-24.9 5.5-11.9 0-23.4-3.5-32.7-9.4q-0.2-0.1-0.4-0.1c-0.3 0-0.5 0.2-0.6 0.5z"/>
			<path id="Layer" fill-rule="evenodd" class="s0" d="m60.8 53.8c-0.3 0.2-0.4 0.4-0.4 0.6v0.1c0 0.2 0.2 0.4 0.6 0.3 2.3-0.3 7.5-1 8.4 0.3 0.9 1.3-1 6.6-1.9 8.9-0.3 0.7 0.3 1 0.9 0.5 3.9-3.5 4.9-10.9 4.1-11.9-0.4-0.5-2.2-1-4.4-1-2.3 0-5.2 0.5-7.3 2.2z"/>
		</g>
	</g>
</svg>