<svg version="1.2" xmlns="http://www.w3.org/2000/svg" viewBox="0 0 80 68" width="80" height="68">
	<title>ic-phone-svg</title>
	<style>
		.s0 { fill: #333333 } 
	</style>
	<path id="Layer" fill-rule="evenodd" class="s0" d="m55.8 0.2c2.3 0 4.9 1.5 6 3.4l15.9 27c1.1 1.9 1.1 4.9 0 6.8l-15.9 27c-1.1 1.9-3.7 3.4-6 3.4h-31.6c-2.3 0-4.9-1.5-6-3.4l-15.9-27c-1.1-1.9-1.1-4.9 0-6.8l15.9-27c1.1-1.9 3.7-3.4 6-3.4zm-35.7 4.6l-15.8 27c-0.7 1.2-0.7 3.2 0 4.4l15.8 27c0.7 1.2 2.6 2.3 4 2.3h31.7c1.4 0 3.2-1.1 3.9-2.3l15.9-27c0.7-1.1 0.7-3.2 0-4.4l-15.9-27c-0.7-1.2-2.5-2.3-3.9-2.3h-31.7c-1.4 0-3.3 1.1-4 2.3z"/>
	<path id="Layer" fill-rule="evenodd" class="s0" d="m27.8 14.8c0-1.7 1.3-3 3-3h19.1c1.6 0 3 1.3 3 3v38.4c0 1.7-1.4 3-3 3h-19.1c-1.7 0-3-1.3-3-3zm22.8 31.3h-20.5v7.3c0 0.3 0.2 0.5 0.6 0.5h19.3c0.3 0 0.6-0.2 0.6-0.5zm-7.1 2.8c0.2 0.5 0.2 1 0 1.4-0.2 0.4-0.5 0.6-0.9 0.6h-3.9c-0.6 0-1-0.6-1-1.3 0-0.6 0.4-1.2 1-1.3h3.7c0.4 0 0.8 0.2 1.1 0.6zm6.5-34.8h-19.3q-0.3 0-0.4 0.1-0.2 0.2-0.2 0.4v29.2h20.5v-29.2q0-0.2-0.2-0.4-0.2-0.1-0.4-0.1z"/>
</svg>