<svg version="1.2" xmlns="http://www.w3.org/2000/svg" viewBox="0 0 80 68" width="80" height="68">
	<title>ic-phone-svg</title>
	<style>
		.s0 { fill: #333333 } 
		.s1 { fill: #333333 } 
	</style>
	<path id="Layer" fill-rule="evenodd" class="s0" d="m55.8 0.2c2.3 0 4.9 1.5 6 3.4l15.9 27c1.1 1.9 1.1 4.9 0 6.8l-15.9 27c-1.1 1.9-3.7 3.4-6 3.4h-31.6c-2.3 0-4.9-1.5-6-3.4l-15.9-27c-1.1-1.9-1.1-4.9 0-6.8l15.9-27c1.1-1.9 3.7-3.4 6-3.4zm-35.7 4.6l-15.8 27c-0.7 1.2-0.7 3.2 0 4.4l15.8 27c0.7 1.2 2.6 2.3 4 2.3h31.7c1.4 0 3.2-1.1 3.9-2.3l15.9-27c0.7-1.1 0.7-3.2 0-4.4l-15.9-27c-0.7-1.2-2.5-2.3-3.9-2.3h-31.7c-1.4 0-3.3 1.1-4 2.3z"/>
	<g id="24x24-copy">
		<g id="Telefonia/mobile,-roaming,-llamadas-internacionales,-internationall-calls/small/Light-Mode">
			<g id="Telefonia/mobile,-roaming,-llamadas-internacionales,-internationall-calls/small">
				<g id="Layer">
					<g id="B2C/mobile,-roaming,-llamadas-internacionales,-internationall-calls/small">
						<g id="Layer">
							<g id="Primary">
								<path id="Shape" fill-rule="evenodd" class="s1" d="m40.1 53.6c-10.9 0-19.8-8.8-19.8-19.7 0-10.8 8.9-19.7 19.8-19.7 10.9 0 19.8 8.8 19.8 19.7 0 5.2-2.1 10.2-5.8 13.9-3.7 3.7-8.7 5.8-14 5.8zm0-37.1c-7 0-13.4 4.3-16.1 10.8-2.7 6.5-1.2 14 3.8 18.9 5 5 12.5 6.5 19 3.8 6.5-2.7 10.8-9.1 10.8-16.1 0-9.6-7.9-17.4-17.5-17.4z"/>
								<path id="Path" class="s1" d="m40.1 27.2c-5.1 0.1-10.2-1.2-14.7-3.7-0.4-0.2-0.6-0.6-0.6-1 0-0.4 0.3-0.8 0.6-1 0.4-0.2 0.8-0.2 1.2 0 4.1 2.3 8.8 3.5 13.5 3.4 4.7 0.1 9.4-1.1 13.5-3.4 0.6-0.3 1.3-0.1 1.6 0.4 0.4 0.6 0.2 1.3-0.4 1.6-4.5 2.5-9.5 3.8-14.7 3.7z"/>
								<path id="Path" class="s1" d="m26 46.4c-0.4 0-0.8-0.3-1-0.6-0.3-0.6-0.1-1.3 0.4-1.6 4.5-2.5 9.6-3.8 14.7-3.7 5 0 10 1.2 14.4 3.5 0.2 0.2 0.4 0.4 0.5 0.7 0.1 0.3 0.1 0.7-0.1 0.9-0.1 0.3-0.4 0.5-0.7 0.6-0.3 0.1-0.6 0-0.9-0.1-4-2.2-8.6-3.3-13.2-3.3-4.7 0-9.4 1.1-13.5 3.4q-0.3 0.2-0.6 0.2z"/>
								<path id="Shape" fill-rule="evenodd" class="s1" d="m40.1 53.6c-6 0-10.8-8.8-10.8-19.7 0-10.9 4.8-19.7 10.8-19.7 6 0 10.9 8.8 10.9 19.7 0 10.9-4.9 19.7-10.9 19.7zm0-37.1c-4.6 0-8.5 8-8.5 17.4 0 9.4 3.9 17.4 8.5 17.4 4.6 0 8.5-8 8.5-17.4 0-9.4-3.9-17.4-8.5-17.4z"/>
								<path id="Path" class="s1" d="m58.7 35h-37.2c-0.6 0-1.2-0.5-1.2-1.1 0-0.7 0.6-1.2 1.2-1.2h37.2c0.7 0 1.2 0.5 1.2 1.2 0 0.6-0.5 1.1-1.2 1.1z"/>
								<path id="Path" class="s1" d="m40.1 53.6c-0.6 0-1.1-0.5-1.1-1.1v-37.2c0-0.6 0.5-1.1 1.1-1.1 0.7 0 1.2 0.5 1.2 1.1v37.1c0 0.3-0.1 0.6-0.3 0.9-0.3 0.2-0.6 0.3-0.9 0.3z"/>
							</g>
							<g id="Marco">
							</g>
						</g>
					</g>
				</g>
			</g>
		</g>
	</g>
	<g id="Marco">
	</g>
</svg>