<svg version="1.2" xmlns="http://www.w3.org/2000/svg" viewBox="0 0 80 68" width="80" height="68">
	<title>ic-tigo-sports-svg</title>
	<style>
		.s0 { fill: none;stroke: #333333 } 
		.s1 { fill: none;stroke: #333333;stroke-linejoin: round } 
		.s2 { fill: #333333 } 
	</style>
	<path id="Layer" fill-rule="evenodd" class="s0" d="m8.2 13.2c0-6.1 4.9-11 11-11h41.6c6.1 0 11 4.9 11 11v41.6c0 6.1-4.9 11-11 11h-41.6c-6.1 0-11-4.9-11-11z"/>
	<path id="Layer" fill-rule="evenodd" class="s1" d="m71.8 44.4c-6.4 0.8-17.4 1.8-31.2 1.8-15.6 0-27-1.2-32.4-2"/>
	<path id="Layer" fill-rule="evenodd" class="s2" d="m36.4 51.2c2.4 0 4.2 1.8 4.2 4.2 0 2.4-1.8 4.4-4.2 4.4q0 0-0.2 0c-2.4 0-4.4-2-4.4-4.4 0-2.2 2-4.2 4.6-4.2zm-2.6 4.3c0 1.4 1.1 2.5 2.5 2.5 1.4 0 2.5-1.1 2.5-2.5v-0.2c0-1.4-1.1-2.5-2.5-2.5-1.4 0-2.5 1.1-2.5 2.5zm28.6-3.5q0.4 0.2 0.4 0.6c0 0.6-0.4 1-0.8 1h-0.2q-0.2 0-0.4-0.2-0.8-0.6-1.8-0.6c-0.6 0-1 0.4-1 0.8 0 0.6 0.4 0.8 1.8 1 1.6 0.6 2.6 1.2 2.6 2.6 0 1.6-1.2 2.6-3 2.6-1.2 0-2.2-0.4-3.2-1q-0.2-0.4-0.2-0.8c0-0.4 0.4-0.8 0.8-0.8q0.2 0 0.6 0.2c0.6 0.4 1.2 0.8 2 0.8 0.8 0 1.2-0.4 1.2-0.8 0-0.6-0.2-0.8-1.6-1.2-1.8-0.4-2.8-0.8-2.8-2.4 0-1.6 1.2-2.6 3-2.6q1.4 0 2.6 0.8zm-39.6 0q0.4 0.2 0.4 0.6c0 0.6-0.4 1-0.8 1q-0.4 0-0.6-0.2-0.8-0.6-1.6-0.6c-0.8 0-1.2 0.4-1.2 0.8 0 0.6 0.4 0.6 1.8 1 1.8 0.6 2.6 1.2 2.6 2.6 0 1.6-1.2 2.6-3 2.6-1 0-2.2-0.4-3-1q-0.4-0.4-0.4-0.8c0-0.4 0.4-0.8 0.8-0.8q0.2 0 0.6 0.2 0.8 0.8 2 0.8c0.8 0 1.2-0.4 1.2-0.8 0-0.6-0.2-0.8-1.6-1.2-1.6-0.4-2.8-0.8-2.8-2.4 0-1.6 1.2-2.6 3-2.6q1.4 0 2.6 0.8zm33.4 0.2c0 0.4-0.4 0.8-0.8 0.8h-1.8v5.8c0 0.4-0.4 0.8-1 0.8-0.4 0-0.8-0.4-0.8-0.8v-5.8h-1.8c-0.4 0-0.8-0.4-0.8-0.8 0-0.4 0.4-0.8 0.8-0.8h5.4c0.4 0 0.8 0.4 0.8 0.8zm-28.2-0.8c2 0 3.2 1 3.2 2.8 0 2-1.6 2.8-3.4 2.8h-1.4v1.8c0 0.4-0.4 0.8-1 0.8-0.4 0-0.8-0.4-0.8-0.8v-2.4c0-0.6 0.4-1 0.8-1h2.4c1 0 1.4-0.4 1.4-1.2 0-0.8-0.4-1.2-1.4-1.2h-2.4c-0.4 0-0.8-0.4-0.8-0.8 0-0.6 0.4-0.8 0.8-0.8zm17.6 0q1.4 0 2.4 0.8c0.4 0.4 0.6 1.2 0.6 1.8 0.2 1.2-0.6 2.2-1.6 2.6l1.2 1.6q0.4 0.2 0.4 0.6c0 0.6-0.4 0.8-1 0.8-0.2 0-0.6 0-0.8-0.4l-1.8-2.2h-1.4v1.8c0 0.4-0.4 0.8-1 0.8-0.4 0-0.8-0.4-0.8-0.8v-2.6c0-0.4 0.4-0.8 0.8-0.8h2.8c0.8 0 1.4-0.6 1.4-1.2 0-0.8-0.6-1.2-1.4-1.2h-2.8c-0.4 0-0.8-0.4-0.8-0.8 0-0.4 0.4-0.8 0.8-0.8z"/>
	<path id="Layer" fill-rule="evenodd" class="s2" d="m39.2 31.2c1.6 2.4 4.2 4.2 7.8 4.2 3.8 0 6.4-2 7.8-4.2h0.2v1.6c0 0.6-0.4 1.4-0.6 2-1 1.8-4 4-7.4 4-3.2 0-6-1.8-7.2-3.8-0.4-0.6-0.8-1.6-0.8-2.2v-1.6zm3.8-15.2c2.6 0 3.6 1.2 3.6 2.4v1.2h-0.4v-0.2c-0.8-0.4-2-0.8-3.4-0.8-2.2 0-3.8 1.4-3.8 3.6 0 3.2 2 3.8 3.8 3.8 1.2 0 1.2-0.4 1.2-0.8v-1q0-0.8-0.2-1.6v-0.4h1.6c0.8 0 1.4 0.8 1.4 1.4v1.8c0 2.2-1.4 3.2-4.4 3.2-3.2 0-6.6-2-6.6-6.2 0-3.8 3-6.4 7.2-6.4zm5.8-2.8q0-0.6 0.4-1.2c0.6-1 2.6-2.2 4.8-2.2 2.2 0 4 1 5 2.2q0.4 0.6 0.4 1.4v1.2c-1.2-1.4-2.8-2.6-5.2-2.6-2.6 0-4.4 1.2-5.4 2.6zm5.2 15c-3.2 0-5.8-2.8-5.8-6.2 0-3.4 2.6-6.2 5.8-6.2 3.2 0 5.8 2.8 5.8 6.2 0 3.4-2.6 6.2-5.8 6.2zm2.6-6.2c0-2-1.2-3.6-2.7-3.6-1.5 0-2.7 1.6-2.7 3.6 0 2 1.2 3.6 2.7 3.6 1.5 0 2.7-1.6 2.7-3.6zm-26.8 2.4v-8.2h0.8c1.2 0 2 0.8 2 2.2v5.6c0 1.2 0.6 1.6 1.8 1.6h0.6v0.6c0 1.4-0.4 1.8-1.8 1.8-2.2 0-3.4-1.2-3.4-3.6zm-0.4-11c0-1 0.8-1.8 1.8-1.8 1 0 1.8 0.8 1.8 1.8 0 1-0.8 1.8-1.8 1.8-1 0-1.8-0.8-1.8-1.8zm-8 0.8c0.4-0.6 1-0.8 1.4-0.8h0.6v2.6h4.2v1.2c0 0.6-0.6 1.4-1.8 1.4h-2.4v4.6c0 1.6 0.8 2.2 2 2.2q1.4 0 2-0.4h0.2v1c0 1.2-1 2-2.6 2-3 0-4.4-1.6-4.4-4.4v-7.2c0-1 0.2-1.6 0.8-2.2z"/>
</svg>