<svg version="1.2" xmlns="http://www.w3.org/2000/svg" viewBox="0 0 80 68" width="80" height="68">
	<title>Proyecto nuevo</title>
	<defs>
		<clipPath clipPathUnits="userSpaceOnUse" id="cp1">
			<path d="m0.35 15.72h79.18v48.45h-79.18z"/>
		</clipPath>
		<clipPath clipPathUnits="userSpaceOnUse" id="cp2">
			<path d="m0.35 9.72h79.18v48.45h-79.18z"/>
		</clipPath>
	</defs>
	<style>
		.s0 { fill: #0d0f16 } 
	</style>
	<g id="Layer">
		<g id="Clip-Path" clip-path="url(#cp1)">
			<g id="Layer">
				<path id="Layer" class="s0" d="m34.2 24.7c0-0.6 0.4-1 1-1h8.5c0.5 0 1 0.4 1 1v13.2c0 0.6-0.5 1-1 1h-8.5c-0.6 0-1-0.4-1-1zm5.3-3.4c-3.3 0-5.9-2.5-5.9-5.7 0-3.3 2.6-5.8 5.9-5.8 3.2 0 5.9 2.5 5.9 5.8 0 3.2-2.7 5.7-5.9 5.7z"/>
				<path id="Layer" class="s0" d="m9.9 10.2c0.6 0 1 0.2 1.1 0.8l5.3 19 5.3-19.1c0.1-0.5 0.5-0.8 1.1-0.8h8.7c0.5 0 0.7 0.4 0.6 0.8l-8.6 27.2c-0.1 0.6-0.6 0.8-1.1 0.8h-12.3c-0.5 0-0.9-0.2-1-0.8l-8.6-27.2c-0.2-0.4 0.1-0.8 0.5-0.8z"/>
				<path id="Layer" class="s0" d="m47.7 37.8l8.4-13.3-8.4-13.4c-0.2-0.4 0-1 0.6-1h9.5c0.7 0 1 0.2 1.3 0.7l4.6 7.9 4.6-7.9c0.2-0.5 0.7-0.7 1.3-0.7h9.2c0.6 0 0.8 0.6 0.6 1l-8.4 13.4 8.4 13.3c0.2 0.5 0 1.1-0.6 1.1h-9.4c-0.7 0-1.1-0.2-1.3-0.7l-4.6-7.9-4.7 7.9c-0.2 0.5-0.7 0.7-1.3 0.7h-9.2c-0.6-0.1-0.9-0.6-0.6-1.1z"/>
				<path id="Layer" fill-rule="evenodd" class="s0" d="m5.9 57.9v-12.6h5.4c1 0 1.9 0.2 2.5 0.6 0.7 0.3 1.3 0.8 1.7 1.5 0.3 0.7 0.6 1.4 0.6 2.3 0 0.8-0.3 1.6-0.6 2.2-0.4 0.7-1 1.2-1.7 1.5-0.7 0.4-1.6 0.6-2.6 0.6h-2.1v3.9zm3.2-6.4h1.5c0.7 0 1.3-0.2 1.7-0.5 0.3-0.4 0.6-0.9 0.6-1.5 0-0.6-0.3-1-0.6-1.4-0.4-0.3-1-0.5-1.7-0.5h-1.5z"/>
				<path id="Layer" class="s0" d="m16.8 57.9v-9.5h3.1v1.7h0.1c0.2-0.6 0.4-1 0.8-1.4 0.4-0.3 0.8-0.5 1.4-0.5 0.3 0 0.5 0 0.7 0.2 0.3 0.1 0.5 0.1 0.6 0.2l-0.9 2.5c-0.1-0.1-0.3-0.1-0.5-0.1-0.1 0-0.4-0.2-0.5-0.2-0.4 0-0.9 0.2-1.3 0.5-0.3 0.4-0.6 0.8-0.6 1.4v5.2z"/>
				<path id="Layer" fill-rule="evenodd" class="s0" d="m28 58.2c-1.5 0-2.7-0.5-3.7-1.3-0.9-0.9-1.3-2.2-1.3-3.6 0-0.9 0.3-1.9 0.6-2.6 0.4-0.7 1-1.3 1.7-1.8 0.7-0.4 1.6-0.5 2.6-0.5 0.9 0 1.8 0.2 2.5 0.5 0.7 0.4 1.3 1 1.6 1.7 0.4 0.7 0.6 1.7 0.6 2.7v0.7h-6.6v0.1c0 0.6 0.1 1.1 0.5 1.5 0.3 0.3 0.8 0.6 1.4 0.6 0.3 0 0.8-0.2 1.1-0.3 0.3-0.1 0.4-0.5 0.5-0.7l2.9 0.1c-0.3 1-0.7 1.7-1.6 2.3-0.4 0.3-1.5 0.6-2.8 0.6zm-1.9-6.1h3.7c0-0.4-0.1-0.8-0.5-1.1-0.3-0.4-0.7-0.5-1.3-0.5-0.5 0-0.9 0.1-1.3 0.5-0.3 0.3-0.6 0.7-0.6 1.1z"/>
				<path id="Layer" class="s0" d="m33.3 57.9v-9.5h3v1.7h0.1q0.4-0.9 1.1-1.4c0.4-0.3 1-0.5 1.7-0.5 0.7 0 1.3 0.2 1.8 0.5 0.5 0.4 0.8 0.8 0.9 1.4h0.2q0.3-0.9 1-1.4c0.6-0.3 1.2-0.5 1.9-0.5 1 0 1.7 0.3 2.3 0.9 0.6 0.6 0.8 1.4 0.8 2.3v6.4h-3.1v-5.5q0-0.8-0.3-1.1c-0.3-0.2-0.6-0.4-1-0.4q-0.7 0-1 0.4-0.4 0.3-0.4 1.1v5.6h-2.9v-5.6q0-0.8-0.4-1.1c-0.2-0.2-0.6-0.4-0.9-0.4-0.4 0-0.8 0.2-1.1 0.5-0.2 0.2-0.4 0.7-0.4 1.2v5.7h-3.3z"/>
				<path id="Layer" class="s0" d="m50.7 47.3c-0.5 0-0.8-0.1-1.2-0.5-0.3-0.2-0.5-0.6-0.5-1 0-0.5 0.2-0.8 0.5-1.1 0.4-0.2 0.7-0.5 1.2-0.5 0.5 0 0.8 0.1 1.2 0.5 0.3 0.2 0.4 0.6 0.4 1.1 0 0.3-0.1 0.7-0.4 1-0.4 0.4-0.7 0.5-1.2 0.5zm-1.5 1.1h3.1v9.5h-3.1z"/>
				<path id="Layer" class="s0" d="m59.7 53.8v-5.4h3v9.5h-2.9v-1.7h-0.1q-0.4 0.8-1.1 1.4c-0.5 0.3-1.2 0.4-1.9 0.4-0.7 0-1.3-0.1-1.8-0.4-0.4-0.4-0.9-0.7-1.1-1.3-0.3-0.6-0.5-1.2-0.5-1.9v-6h3.1v5.5c0 0.5 0.1 1 0.4 1.2 0.3 0.3 0.7 0.5 1.2 0.5 0.5 0 0.8-0.2 1.2-0.5 0.4-0.2 0.5-0.7 0.5-1.3z"/>
				<path id="Layer" class="s0" d="m63.9 57.9v-9.5h3v1.7h0.1q0.4-0.9 1.1-1.4c0.4-0.3 1-0.5 1.7-0.5 0.7 0 1.3 0.2 1.8 0.5 0.5 0.4 0.8 0.8 1 1.4h0.1q0.3-0.9 1-1.4c0.6-0.3 1.2-0.5 1.9-0.5 1 0 1.7 0.3 2.3 0.9 0.6 0.6 0.8 1.4 0.8 2.3v6.4h-3.1v-5.5q0-0.8-0.3-1.1c-0.3-0.2-0.6-0.4-1-0.4q-0.7 0-1 0.4-0.4 0.3-0.4 1.1v5.6h-2.9v-5.6q0-0.8-0.4-1.1c-0.2-0.2-0.6-0.4-0.9-0.4-0.4 0-0.8 0.2-1.1 0.5-0.2 0.2-0.4 0.7-0.4 1.2v5.7h-3.3z"/>
			</g>
		</g>
	</g>
	<g id="Layer copy 12">
		<g id="Clip-Path" clip-path="url(#cp2)">
			<g id="Layer">
				<path id="Layer" class="s0" d="m34.2 24.7c0-0.6 0.4-1 1-1h8.5c0.5 0 1 0.4 1 1v13.2c0 0.6-0.5 1-1 1h-8.5c-0.6 0-1-0.4-1-1zm5.3-3.4c-3.3 0-5.9-2.5-5.9-5.7 0-3.3 2.6-5.8 5.9-5.8 3.2 0 5.9 2.5 5.9 5.8 0 3.2-2.7 5.7-5.9 5.7z"/>
				<path id="Layer" class="s0" d="m9.9 10.2c0.6 0 1 0.2 1.1 0.8l5.3 19 5.3-19.1c0.1-0.5 0.5-0.8 1.1-0.8h8.7c0.5 0 0.7 0.4 0.6 0.8l-8.6 27.2c-0.1 0.6-0.6 0.8-1.1 0.8h-12.3c-0.5 0-0.9-0.2-1-0.8l-8.6-27.2c-0.2-0.4 0.1-0.8 0.5-0.8z"/>
				<path id="Layer" class="s0" d="m47.7 37.8l8.4-13.3-8.4-13.4c-0.2-0.4 0-1 0.6-1h9.5c0.7 0 1 0.2 1.3 0.7l4.6 7.9 4.6-7.9c0.2-0.5 0.7-0.7 1.3-0.7h9.2c0.6 0 0.8 0.6 0.6 1l-8.4 13.4 8.4 13.3c0.2 0.5 0 1.1-0.6 1.1h-9.4c-0.7 0-1.1-0.2-1.3-0.7l-4.6-7.9-4.7 7.9c-0.2 0.5-0.7 0.7-1.3 0.7h-9.2c-0.6-0.1-0.9-0.6-0.6-1.1z"/>
				<path id="Layer" fill-rule="evenodd" class="s0" d="m5.9 57.9v-12.6h5.4c1 0 1.9 0.2 2.5 0.6 0.7 0.3 1.3 0.8 1.7 1.5 0.3 0.7 0.6 1.4 0.6 2.3 0 0.8-0.3 1.6-0.6 2.2-0.4 0.7-1 1.2-1.7 1.5-0.7 0.4-1.6 0.6-2.6 0.6h-2.1v3.9zm3.2-6.4h1.5c0.7 0 1.3-0.2 1.7-0.5 0.3-0.4 0.6-0.9 0.6-1.5 0-0.6-0.3-1-0.6-1.4-0.4-0.3-1-0.5-1.7-0.5h-1.5z"/>
				<path id="Layer" class="s0" d="m16.8 57.9v-9.5h3.1v1.7h0.1c0.2-0.6 0.4-1 0.8-1.4 0.4-0.3 0.8-0.5 1.4-0.5 0.3 0 0.5 0 0.7 0.2 0.3 0.1 0.5 0.1 0.6 0.2l-0.9 2.5c-0.1-0.1-0.3-0.1-0.5-0.1-0.1 0-0.4-0.2-0.5-0.2-0.4 0-0.9 0.2-1.3 0.5-0.3 0.4-0.6 0.8-0.6 1.4v5.2z"/>
				<path id="Layer" fill-rule="evenodd" class="s0" d="m28 58.2c-1.5 0-2.7-0.5-3.7-1.3-0.9-0.9-1.3-2.2-1.3-3.6 0-0.9 0.3-1.9 0.6-2.6 0.4-0.7 1-1.3 1.7-1.8 0.7-0.4 1.6-0.5 2.6-0.5 0.9 0 1.8 0.2 2.5 0.5 0.7 0.4 1.3 1 1.6 1.7 0.4 0.7 0.6 1.7 0.6 2.7v0.7h-6.6v0.1c0 0.6 0.1 1.1 0.5 1.5 0.3 0.3 0.8 0.6 1.4 0.6 0.3 0 0.8-0.2 1.1-0.3 0.3-0.1 0.4-0.5 0.5-0.7l2.9 0.1c-0.3 1-0.7 1.7-1.6 2.3-0.4 0.3-1.5 0.6-2.8 0.6zm-1.9-6.1h3.7c0-0.4-0.1-0.8-0.5-1.1-0.3-0.4-0.7-0.5-1.3-0.5-0.5 0-0.9 0.1-1.3 0.5-0.3 0.3-0.6 0.7-0.6 1.1z"/>
				<path id="Layer" class="s0" d="m33.3 57.9v-9.5h3v1.7h0.1q0.4-0.9 1.1-1.4c0.4-0.3 1-0.5 1.7-0.5 0.7 0 1.3 0.2 1.8 0.5 0.5 0.4 0.8 0.8 0.9 1.4h0.2q0.3-0.9 1-1.4c0.6-0.3 1.2-0.5 1.9-0.5 1 0 1.7 0.3 2.3 0.9 0.6 0.6 0.8 1.4 0.8 2.3v6.4h-3.1v-5.5q0-0.8-0.3-1.1c-0.3-0.2-0.6-0.4-1-0.4q-0.7 0-1 0.4-0.4 0.3-0.4 1.1v5.6h-2.9v-5.6q0-0.8-0.4-1.1c-0.2-0.2-0.6-0.4-0.9-0.4-0.4 0-0.8 0.2-1.1 0.5-0.2 0.2-0.4 0.7-0.4 1.2v5.7h-3.3z"/>
				<path id="Layer" class="s0" d="m50.7 47.3c-0.5 0-0.8-0.1-1.2-0.5-0.3-0.2-0.5-0.6-0.5-1 0-0.5 0.2-0.8 0.5-1.1 0.4-0.2 0.7-0.5 1.2-0.5 0.5 0 0.8 0.1 1.2 0.5 0.3 0.2 0.4 0.6 0.4 1.1 0 0.3-0.1 0.7-0.4 1-0.4 0.4-0.7 0.5-1.2 0.5zm-1.5 1.1h3.1v9.5h-3.1z"/>
				<path id="Layer" class="s0" d="m59.7 53.8v-5.4h3v9.5h-2.9v-1.7h-0.1q-0.4 0.8-1.1 1.4c-0.5 0.3-1.2 0.4-1.9 0.4-0.7 0-1.3-0.1-1.8-0.4-0.4-0.4-0.9-0.7-1.1-1.3-0.3-0.6-0.5-1.2-0.5-1.9v-6h3.1v5.5c0 0.5 0.1 1 0.4 1.2 0.3 0.3 0.7 0.5 1.2 0.5 0.5 0 0.8-0.2 1.2-0.5 0.4-0.2 0.5-0.7 0.5-1.3z"/>
				<path id="Layer" class="s0" d="m63.9 57.9v-9.5h3v1.7h0.1q0.4-0.9 1.1-1.4c0.4-0.3 1-0.5 1.7-0.5 0.7 0 1.3 0.2 1.8 0.5 0.5 0.4 0.8 0.8 1 1.4h0.1q0.3-0.9 1-1.4c0.6-0.3 1.2-0.5 1.9-0.5 1 0 1.7 0.3 2.3 0.9 0.6 0.6 0.8 1.4 0.8 2.3v6.4h-3.1v-5.5q0-0.8-0.3-1.1c-0.3-0.2-0.6-0.4-1-0.4q-0.7 0-1 0.4-0.4 0.3-0.4 1.1v5.6h-2.9v-5.6q0-0.8-0.4-1.1c-0.2-0.2-0.6-0.4-0.9-0.4-0.4 0-0.8 0.2-1.1 0.5-0.2 0.2-0.4 0.7-0.4 1.2v5.7h-3.3z"/>
			</g>
		</g>
	</g>
</svg>