<svg version="1.2" xmlns="http://www.w3.org/2000/svg" viewBox="0 0 80 68" width="80" height="68">
	<title>ic-wifi-svg</title>
	<style>
		.s0 { fill: #ffffff } 
	</style>
	<path id="Layer" fill-rule="evenodd" class="s0" d="m55.8 0.2c2.2 0 4.8 1.4 6 3.4l15.8 27c1.2 2 1.2 5 0 6.8l-15.8 27c-1.2 2-3.8 3.4-6 3.4h-31.6c-2.2 0-5-1.4-6-3.4l-15.8-27c-1.2-2-1.2-5 0-6.8l15.8-27c1-2 3.8-3.4 6-3.4zm-35.6 4.6l-16 27c-0.6 1.2-0.6 3.2 0 4.4l16 27c0.6 1.2 2.4 2.4 3.8 2.4h31.8c1.4 0 3.2-1.2 4-2.4l15.8-27c0.6-1.2 0.6-3.2 0-4.4l-15.8-27c-0.8-1.2-2.6-2.2-4-2.2h-31.8c-1.4 0-3.2 1-3.8 2.2z"/>
	<path id="Layer" class="s0" d="m40 50.4c-1.4 0-2.6-1.1-2.6-2.5 0-1.4 1.2-2.5 2.6-2.5 1.4 0 2.6 1.1 2.6 2.5 0 1.4-1.2 2.5-2.6 2.5zm0-17.2c4.2 0 8.4 1.8 11 5.2 0.4 0.4 0.6 1.2 0.4 1.8-0.4 0.6-1 0.8-1.6 0.8q-0.8 0-1.2-0.4c-2.4-2.8-5.4-4.2-8.6-4.2-3.4 0-6.4 1.4-8.6 4.2-0.4 0.4-1 0.6-1.6 0.6-0.6-0.2-1.2-0.6-1.4-1.2 0-0.6 0-1.2 0.4-1.6 2.8-3.4 6.8-5.2 11.2-5.2zm0-12.2c7.4 0 14.4 3.4 19.6 9.4 0.4 0.6 0.4 1.8-0.2 2.4-0.8 0.4-1.8 0.4-2.4-0.2-4.4-5.4-10.6-8.2-17-8.2-6.6 0-12.6 2.8-17.2 8.2-0.2 0.2-0.8 0.4-1.2 0.4-0.6 0-1.2-0.2-1.4-0.8-0.4-0.6-0.2-1.4 0.2-1.8 5-6 12.2-9.4 19.6-9.4z"/>
</svg>