<svg version="1.2" xmlns="http://www.w3.org/2000/svg" viewBox="0 0 80 68" width="80" height="68">
	<title>ic-phone-svg</title>
	<style>
		.s0 { fill: #333333 } 
	</style>
	<path id="Layer" fill-rule="evenodd" class="s0" d="m55.8 0.2c2.3 0 4.9 1.5 6 3.4l15.9 27c1.1 1.9 1.1 4.9 0 6.8l-15.9 27c-1.1 1.9-3.7 3.4-6 3.4h-31.6c-2.3 0-4.9-1.5-6-3.4l-15.9-27c-1.1-1.9-1.1-4.9 0-6.8l15.9-27c1.1-1.9 3.7-3.4 6-3.4zm-35.7 4.6l-15.8 27c-0.7 1.2-0.7 3.2 0 4.4l15.8 27c0.7 1.2 2.6 2.3 4 2.3h31.7c1.4 0 3.2-1.1 3.9-2.3l15.9-27c0.7-1.1 0.7-3.2 0-4.4l-15.9-27c-0.7-1.2-2.5-2.3-3.9-2.3h-31.7c-1.4 0-3.3 1.1-4 2.3z"/>
	<path id="Layer" fill-rule="evenodd" class="s0" d="m54.1 19.4c3.7 3.7 5.8 8.7 5.8 14 0 11-8.9 19.9-19.9 19.9-3.3 0-6.6-0.8-9.4-2.4l-10.6 2.7 2.8-10.3c-1.7-3-2.6-6.4-2.6-9.9 0-11 8.9-19.9 19.8-19.9 5.4 0 10.3 2.1 14.1 5.9zm-14.1 30.5c9.1 0 16.5-7.4 16.5-16.5 0-4.4-1.7-8.5-4.8-11.7-3.1-3.1-7.2-4.8-11.7-4.8-9 0-16.4 7.4-16.5 16.5 0 3.1 0.9 6.2 2.6 8.8l0.4 0.6-1.7 6.1 6.2-1.6 0.6 0.3c2.6 1.5 5.5 2.3 8.4 2.3zm9.1-12.3c0.5 0.2 0.8 0.3 0.9 0.5 0.2 0.3 0.2 1.2-0.3 2.4-0.4 1.2-2.3 2.2-3.3 2.4-0.9 0.1-1.9 0.1-3.1-0.2-0.7-0.3-1.7-0.6-2.8-1.1-5-2.1-8.3-7.1-8.5-7.5-0.3-0.3-2-2.7-2-5.1 0-2.5 1.2-3.7 1.7-4.1 0.4-0.5 1-0.7 1.3-0.7q0.5 0 1 0c0.3 0.1 0.7-0.1 1.1 0.9 0.4 1 1.4 3.4 1.5 3.7 0.1 0.2 0.2 0.5 0.1 0.9-0.2 0.3-0.3 0.5-0.5 0.8-0.3 0.3-0.6 0.6-0.8 0.9-0.2 0.2-0.5 0.5-0.2 1 0.3 0.5 1.3 2.1 2.8 3.4 1.8 1.7 3.4 2.2 3.9 2.5 0.5 0.2 0.8 0.2 1.1-0.2 0.3-0.3 1.3-1.4 1.6-1.9 0.3-0.5 0.6-0.4 1.1-0.3 0.5 0.2 2.9 1.4 3.4 1.7z"/>
	<g id="Marco">
	</g>
</svg>