<svg width="25" height="25" viewBox="0 0 22 22" fill="none" xmlns="http://www.w3.org/2000/svg">
<path fill-rule="evenodd" clip-rule="evenodd" d="M18.4402 3.55161C16.4664 1.58473 13.8412 0.500998 11.0441 0.5C5.28047 0.5 0.589744 5.16772 0.587738 10.9052C0.586735 12.7393 1.06854 14.5296 1.98353 16.1073L0.5 21.5L6.04304 20.053C7.57017 20.8823 9.28984 21.3189 11.0396 21.3194H11.0441C16.8067 21.3194 21.498 16.6511 21.5 10.9137C21.501 8.13303 20.4145 5.51899 18.4402 3.5521V3.55161ZM11.0441 19.5621H11.0406C9.48135 19.5616 7.95173 19.1444 6.61713 18.3566L6.29975 18.169L3.01032 19.0277L3.8882 15.8358L3.68163 15.5085C2.81177 14.1315 2.35202 12.5398 2.35303 10.9057C2.35503 6.13719 6.25361 2.25732 11.0477 2.25732C13.3689 2.25832 15.5509 3.15893 17.1918 4.79401C18.8328 6.42859 19.7357 8.60205 19.7347 10.9127C19.7327 15.6817 15.8341 19.5616 11.0441 19.5616V19.5621ZM15.811 13.0846C15.5498 12.9544 14.2654 12.3257 14.0257 12.2389C13.7861 12.1521 13.6121 12.1087 13.4381 12.3691C13.2642 12.6296 12.7633 13.2154 12.6109 13.3885C12.4585 13.5621 12.306 13.5836 12.0448 13.4533C11.7836 13.3231 10.9418 13.0487 9.94364 12.163C9.16705 11.4735 8.64258 10.6223 8.49021 10.3618C8.33778 10.1014 8.47417 9.96067 8.60448 9.83144C8.72179 9.7147 8.8657 9.52759 8.99654 9.3759C9.12744 9.22421 9.17055 9.11547 9.25776 8.9423C9.34503 8.76866 9.30139 8.61703 9.23623 8.48675C9.17102 8.35654 8.64864 7.07669 8.43053 6.5563C8.21843 6.04938 8.00289 6.11823 7.84294 6.10975C7.69052 6.10226 7.51657 6.10077 7.34209 6.10077C7.16762 6.10077 6.88482 6.16563 6.64518 6.42609C6.40555 6.68652 5.7307 7.3157 5.7307 8.59502C5.7307 9.87434 6.66677 11.1113 6.79761 11.2849C6.92845 11.4586 8.64007 14.0846 11.2607 15.2112C11.8839 15.4791 12.3707 15.6393 12.7502 15.759C13.376 15.9571 13.9455 15.9292 14.3957 15.8623C14.8976 15.7875 15.9414 15.2331 16.159 14.6259C16.3766 14.0187 16.3766 13.4977 16.3114 13.3895C16.2463 13.2812 16.0718 13.2158 15.8106 13.0856L15.811 13.0846Z" fill="#333"/>
</svg>
