<?xml version="1.0" encoding="UTF-8"?>
<svg width="29px" height="29px" viewBox="0 0 29 29" version="1.1" xmlns="http://www.w3.org/2000/svg" xmlns:xlink="http://www.w3.org/1999/xlink">
    <title>Artboard Copy</title>
    <defs>
        <filter x="-66.7%" y="-66.7%" width="233.3%" height="233.3%" filterUnits="objectBoundingBox" id="filter-1">
            <feGaussianBlur stdDeviation="10" in="SourceGraphic"></feGaussianBlur>
        </filter>
    </defs>
    <g id="Artboard-Copy" stroke="none" stroke-width="1" fill="none" fill-rule="evenodd">
        <g id="Logos/Branded-Products/Tigo-OneTV/Light-Mode-Copy-2" transform="translate(-8.000000, -8.000000)">
            <rect id="Rectangle" filter="url(#filter-1)" x="0" y="0" width="45" height="45"></rect>
            <g id="Group" transform="translate(9.000000, 9.000000)">
                <path d="M26.7300003,17.7343561 L26.7300003,22.1940002 C26.7300003,24.6991638 24.6991638,26.7300003 22.1940002,26.7300003 L4.80599983,26.7300003 C2.30083616,26.7300003 0.269999743,24.6991638 0.269999743,22.1940002 L0.269999743,17.6580001 L0.64799975,17.6580001 C2.82916688,17.9392321 7.44817382,18.4162681 13.7507921,18.4155121 C19.3542619,18.4155121 23.8061929,18.0254161 26.3516223,17.7343561 L26.7300003,17.7343561 Z" id="Background-Inferior" fill="#1B161C"></path>
                <path d="M26.7300003,17.7343561 L26.3516223,17.7343561 C23.8061929,18.0254161 19.3542619,18.415513 13.7507921,18.415513 C7.44817382,18.4162681 2.82916688,17.9392321 0.64799975,17.6580001 L0.269999743,17.6580001 L0.269999743,4.80599983 C0.269999743,2.30083616 2.30083616,0.269999743 4.80599983,0.269999743 L22.1940002,0.269999743 C24.6991638,0.269999743 26.7300003,2.30083616 26.7300003,4.80599983 L26.7300003,17.7343561 L26.7300003,17.7343561 Z" id="Background-Superior" fill="#00377D"></path>
                <path d="M4.62857143,0 L22.3714286,0 C24.927718,0 27,2.07228202 27,4.62857143 L27,22.3714286 C27,24.927718 24.927718,27 22.3714286,27 L4.62857143,27 C2.07228202,27 0,24.927718 0,22.3714286 L0,4.62857143 C0,2.07228202 2.07228202,0 4.62857143,0 Z M4.62857143,0.578571429 C2.39181819,0.578571429 0.578571429,2.39181819 0.578571429,4.62857143 L0.578571429,22.3714286 C0.578571429,24.6081818 2.39181819,26.4214286 4.62857143,26.4214286 L22.3714286,26.4214286 C24.6081818,26.4214286 26.4214286,24.6081818 26.4214286,22.3714286 L26.4214286,4.62857143 C26.4214286,2.39181819 24.6081818,0.578571429 22.3714286,0.578571429 L4.62857143,0.578571429 Z" id="Borde-Exterior" fill="#FFFFFF" fill-rule="nonzero"></path>
                <path d="M26.5810355,17.5333586 C22.9006461,17.9541969 18.56529,18.2265438 13.7559103,18.2265438 C8.47277005,18.2271767 3.97302993,17.9137126 0.422707535,17.4559465 L0.348721037,18.0297678 L0.906031332,18.0994896 C4.38873974,18.5220722 8.71918918,18.8057186 13.755945,18.8051162 C18.5884796,18.8051162 22.9455431,18.5314046 26.6467645,18.1081843 L26.5810355,17.5333586 Z" id="Stroke" fill="#FFFFFF" fill-rule="nonzero"></path>
                <g id="ONEtv" transform="translate(4.618697, 20.478536)">
                    <path d="M3.83631429,2.11872857 C3.83554286,1.16871429 3.06565714,0.398442857 2.11564286,0.397285714 L2.11487143,0.397285714 C1.16447143,0.397285714 0.393814286,1.16794286 0.393814286,2.11872857 C0.393814286,3.06912857 1.16447143,3.83978571 2.11487143,3.83978571 C3.06565714,3.83978571 3.83631429,3.06912857 3.83631429,2.11872857 L3.83631429,2.11872857 Z M4.23552857,2.11757143 C4.23552857,3.28705714 3.28705714,4.23514286 2.11757143,4.23514286 C0.948085714,4.23514286 -1.72821757e-12,3.28705714 -1.72821757e-12,2.11757143 C-1.72821757e-12,0.948085714 0.948085714,3.5971226e-15 2.11757143,3.5971226e-15 C3.28667143,0.00115714286 4.23437143,0.948471429 4.23552857,2.11757143 L4.23552857,2.11757143 Z M16.6435714,0.919157143 L15.5466,3.60642857 L14.4561857,0.919157143 L14.3184857,0.919157143 L13.9239,0.919157143 L13.0645286,0.919157143 L13.0645286,0.0262285714 L12.6047571,0.0262285714 L12.6047571,0.919157143 L11.9440286,0.919157143 L11.9440286,1.34498571 L12.6047571,1.34498571 L12.6047571,3.26931429 C12.6051429,3.79928571 13.0352143,4.22897143 13.5651857,4.22974286 L13.7943,4.22974286 L13.7943,3.76958571 L13.5651857,3.76958571 C13.2890143,3.7692 13.0653,3.54548571 13.0645286,3.26931429 L13.0645286,1.34498571 L14.1075,1.34498571 L15.3279,4.18345714 L15.7537286,4.18345714 L17.1635143,0.919157143 L16.6435714,0.919157143 Z M8.92697143,2.22672857 L10.8574714,2.22672857 L10.8574714,1.83522857 L8.92697143,1.83522857 L8.92697143,0.439328571 L11.1247714,0.439328571 L11.1247714,0.0478285714 L8.48918571,0.0478285714 L8.48918571,4.16764286 L11.1390429,4.16764286 L11.1390429,3.77652857 L8.92697143,3.77652857 L8.92697143,2.22672857 Z M7.35788571,0.0482142857 L7.79605714,0.0482142857 L7.79605714,4.16764286 L7.38295714,4.16764286 L7.36714286,4.14372857 L5.17435714,0.824271429 L5.17435714,4.16764286 L4.7331,4.16764286 L4.7331,0.0482142857 L5.14851429,0.0482142857 L5.16548571,0.0725142857 L7.35788571,3.38618571 L7.35788571,0.0482142857 Z" id="Fill-11" fill="#FFFFFF"></path>
                    <path d="M1.84448571,1.34919 L2.90712857,2.01879 C2.97462857,2.06199 2.99391429,2.15109 2.9511,2.21859 C2.93991429,2.23633286 2.92487143,2.25137571 2.90712857,2.26256143 L1.84448571,2.93254714 C1.77737143,2.97651857 1.68827143,2.95723286 1.64468571,2.89011857 C1.62925714,2.86659 1.62115714,2.83881857 1.62152969,2.81066143 L1.62152969,1.47146143 C1.62152969,1.39161857 1.68634286,1.32720429 1.76618571,1.32720429 C1.79318571,1.32720429 1.8198,1.33491857 1.84255714,1.34919" id="Fill-13" fill="#44C7F4"></path>
                </g>
                <path d="M13.150642,12.3521969 C13.8517442,13.3035835 14.9347788,14.0912528 16.3928571,14.0912528 C17.9764603,14.0912528 19.0453351,13.2923543 19.6350723,12.3630389 L19.6350723,12.3630389 L19.6687497,12.3630389 L19.6714286,13.0007816 C19.6714286,13.2300127 19.5684829,13.60019 19.4268847,13.8549773 C19.0453351,14.5496406 17.7583226,15.4546038 16.3928571,15.4546038 C15.0480573,15.4546038 13.9539245,14.7386014 13.3959512,13.9072513 C13.2340701,13.6636933 13.1142857,13.2311744 13.1142857,12.9667067 L13.1142857,12.9667067 L13.1142857,12.3521969 Z M14.7166215,6.03555794 C15.7477884,6.03555794 16.2177363,6.58396004 16.2177363,7.09391185 L16.2177363,7.09391185 L16.2177363,7.52307922 L16.0511184,7.52307922 L16.02665,7.50443665 C15.7178826,7.26091815 15.1706456,7.107117 14.5931145,7.107117 C13.6811824,7.107117 13.0185946,7.73280806 13.0185946,8.5938615 C13.0185946,9.94389387 13.8683848,10.2278046 14.5837932,10.2278046 C15.0789864,10.2278046 15.1232624,10.0499235 15.1232624,9.85611846 L15.1232624,9.85611846 L15.1232624,9.45996397 C15.1217089,9.22537837 15.0964638,8.99156954 15.0471386,8.76242136 L15.0471386,8.76242136 L15.0230587,8.64862404 L15.6716645,8.64862404 C15.9963559,8.6497892 16.2981324,8.91428058 16.2981324,9.19430743 L16.2981324,9.19430743 L16.2981324,9.981179 C16.2981324,10.8694195 15.7027355,11.2981985 14.4661121,11.2981985 C13.1207403,11.2981985 11.7578912,10.4157838 11.7578912,8.72707816 C11.7578912,7.14440213 12.9747069,6.03555794 14.7166215,6.03555794 Z M17.0768478,5.47317391 L17.1044233,5.47317391 C17.499801,4.9104015 18.275021,4.43734643 19.341531,4.43734643 C20.3241495,4.43734643 20.9960586,4.9076828 21.4652298,5.47977649 L21.4889214,5.47977649 L21.4889214,4.96205694 C21.4776582,4.75931906 21.4127976,4.56318374 21.3005538,4.39462389 C20.9218767,3.8928282 20.1513174,3.47142857 19.2436575,3.47142857 C18.3255113,3.47142857 17.4990242,4.0074023 17.2391935,4.42724838 C17.1452039,4.58376824 17.0888878,4.76009583 17.0756827,4.94224922 L17.0768478,5.47317391 Z M16.83799,8.66338273 C16.83799,7.18401758 17.6873918,5.99788442 19.2758936,5.99788442 C20.7521517,5.99788442 21.6,7.18401758 21.6,8.48705514 C21.6,9.96680869 20.7502098,11.142067 19.1644267,11.142067 C17.6881686,11.142067 16.83799,9.96719707 16.83799,8.66415951 L16.83799,8.66338273 Z M20.3350243,8.66338273 C20.3350243,7.67571521 19.9676105,7.09352346 19.166757,7.09352346 C18.4680492,7.09352346 18.1076263,7.67765714 18.1076263,8.48705514 C18.1076263,9.465013 18.4680492,10.0468164 19.2758936,10.0468164 C19.9870298,10.0468164 20.3350243,9.46268268 20.3350243,8.66338273 L20.3350243,8.66338273 Z M10.6742922,11.0795367 C11.1931769,11.0795367 11.4021289,10.8705847 11.4021289,10.33966 L11.4021289,10.0786641 L11.1760878,10.0786641 C10.6381722,10.0786641 10.4276666,9.91903712 10.4276666,9.43044658 L10.4276666,7.13003182 C10.4276666,6.50977817 10.1021985,6.21732294 9.55224281,6.21732294 L9.20347151,6.21732294 L9.20347151,9.54657422 C9.20347151,10.5416211 9.72507492,11.0795367 10.6742922,11.0795367 L10.6742922,11.0795367 Z M9.80702453,5.76252205 C10.2035674,5.75902657 10.5247633,5.43860749 10.5294239,5.04206461 C10.5243749,4.6466869 10.2024022,4.32898653 9.80702453,4.32976188 C9.4147539,4.33092846 9.09705354,4.64979399 9.0982155,5.04206461 C9.09744192,5.43588879 9.41358874,5.75708463 9.80702453,5.76252205 L9.80702453,5.76252205 Z M5.75615066,5.33413146 C5.91888471,5.14382194 6.13832322,4.99623498 6.33290499,4.99623498 L6.61215507,4.99623498 L6.61215507,6.10663271 L8.32028002,6.10663271 L8.32028002,6.61114711 C8.32028002,6.86515205 8.09035506,7.19528079 7.59283163,7.19528079 L6.61215507,7.19528079 L6.61215507,9.12517459 C6.61215507,9.76212887 6.89295869,10.0056474 7.38854019,10.0056474 C7.78042243,10.0056474 8.08142217,9.95243838 8.27173168,9.83320364 L8.32028002,9.83320364 L8.32028002,10.2720807 C8.32028002,10.7727112 7.95403131,11.0927419 7.24367193,11.0927419 C6.00161109,11.0900232 5.4,10.4157838 5.4,9.26615898 L5.4,6.30781705 C5.4,5.82505232 5.48894057,5.64406409 5.7549855,5.33413146 L5.75615066,5.33413146 Z" id="Tigo" fill="#FFFFFF"></path>
            </g>
        </g>
    </g>
</svg>