<svg version="1.2" xmlns="http://www.w3.org/2000/svg" viewBox="0 0 80 68" width="80" height="68">
	<title>Proyecto nuevo</title>
	<style>
		.s0 { fill: #ffffff } 
	</style>
	<g id="Page-1">
		<g id="ic-prime-video-list">
			<g id="Group">
				<path id="Combined-Shape" fill-rule="evenodd" class="s0" d="m52 41.2q2 0 4 0.7 0.4 0.2 0.6 0.4 0.1 0.2 0.1 0.6v0.9q0 0.6-0.4 0.6-0.2 0-0.7-0.2-1.7-0.5-3.5-0.5-3.1 0-3.1 2.1 0 0.8 0.5 1.3 0.6 0.5 2.1 1.1l2.5 0.9q1.9 0.8 2.7 1.8 0.8 1 0.8 2.6 0 2.3-1.7 3.7-1.7 1.3-4.5 1.3-2.7 0-4.9-0.9-0.3-0.2-0.5-0.3-0.1-0.2-0.1-0.7v-0.9q0-0.5 0.4-0.5 0.2 0 0.8 0.2 2.1 0.6 4.4 0.6 1.5 0 2.4-0.6 0.8-0.6 0.8-1.8 0-0.7-0.5-1.2-0.5-0.5-1.8-1l-2.8-1q-3.5-1.3-3.5-4.5 0-2.1 1.6-3.4 1.6-1.3 4.3-1.3zm11.9 0.7v16.6h-3.5v-16.6zm-32.1 0q0.7 0 0.7 0.6v10.1q0 1.7 0.6 2.6 0.7 0.8 2.2 0.8 2.3 0 4.6-1.6v-11.9q0-0.6 0.7-0.6h1.9q0.6 0 0.6 0.6v14.9q0 0.6-0.6 0.6h-1.4q-0.3 0-0.5-0.1-0.2-0.1-0.2-0.5l-0.3-1.1q-3 2.2-6.1 2.2-2.3 0-3.5-1.3-1.2-1.2-1.2-3.6v-11.1q0-0.6 0.6-0.6zm43.8-0.7q1.7 0 3.5 0.6 0.3 0.2 0.5 0.4 0.1 0.1 0.1 0.6v0.9q0 0.6-0.4 0.6-0.2 0-0.5-0.1-1.4-0.3-2.8-0.3-2.8 0-4 1.3-1.2 1.4-1.2 4.5v0.4q0 3 1.2 4.4 1.3 1.4 4 1.4 1.3 0 2.9-0.5 0.4-0.1 0.5-0.1 0.5 0 0.5 0.7v0.8q0 0.5-0.2 0.7-0.1 0.2-0.5 0.3-1.6 0.7-3.8 0.7-3.9 0-5.9-2.2-2.1-2.2-2.1-6.4 0-4.1 2.1-6.4 2.2-2.3 6.1-2.3zm-55.1 0q2.2 0 3.4 1.2 1.2 1.3 1.2 3.6v11.2q0 0.6-0.6 0.6h-1.9q-0.7 0-0.7-0.6v-10.3q0-1.6-0.6-2.4-0.6-0.7-2-0.7-2.3 0-4.7 1.4 0 0.2 0 0.5v11.5q0 0.6-0.7 0.6h-1.9q-0.6 0-0.6-0.6v-10.3q0-1.6-0.6-2.4-0.7-0.7-2-0.7-2.5 0-4.7 1.4v12q0 0.6-0.7 0.6h-1.9q-0.6 0-0.6-0.6v-14.9q0-0.6 0.6-0.6h1.4q0.4 0 0.5 0.1 0.2 0.1 0.3 0.5l0.2 1q3.1-2.1 6.1-2.1 3 0 4 2.3 3.3-2.3 6.5-2.3zm41.7-5.9q1 0 1.5 0.5 0.6 0.6 0.6 1.5 0 1-0.6 1.6-0.5 0.5-1.5 0.5-1 0-1.5-0.5-0.6-0.6-0.6-1.6 0-0.9 0.6-1.5 0.5-0.5 1.5-0.5zm-50.8-9.4c-0.4-0.4 0-0.9 0.5-0.6 5.9 3.3 13.2 5.3 20.7 5.3 5.1 0 10.6-1 15.8-3.1 0.7-0.3 1.4 0.5 0.6 1-4.5 3.3-11.2 5-16.9 5-8 0-15.2-2.9-20.7-7.6zm34.1-0.1c2.5-1.9 6.7-1.3 7.2-0.7 0.5 0.6-0.1 4.8-2.5 6.9-0.4 0.3-0.8 0.1-0.6-0.3 0.5-1.4 1.8-4.4 1.2-5.1-0.6-0.8-3.8-0.4-5.2-0.2-0.5 0-0.5-0.4-0.1-0.6zm30.7-15.8c1.2 0 2.3 0.4 3 1.5 0.7 1 0.7 2.7 0.7 3.9v8c-0.1 0.2-0.3 0.4-0.5 0.4h-2.6c-0.2 0-0.4-0.2-0.4-0.4v-7c0-1.4 0.1-3.3-1.6-3.3-0.6 0-1.2 0.4-1.5 1-0.3 0.8-0.4 1.6-0.4 2.4v6.9c0 0.2-0.2 0.4-0.5 0.4h-2.5c-0.2 0-0.4-0.2-0.4-0.4v-12.7c0-0.3 0.2-0.5 0.5-0.5h2.3c0.2 0.1 0.4 0.2 0.5 0.4v1.9c0.7-1.7 1.7-2.5 3.4-2.5zm-14.4 13.8c-3 0-5.5-3.1-5.5-6.9 0-3.8 2.5-6.9 5.5-6.9 3.1 0 5.6 3.1 5.6 6.9 0 3.8-2.5 6.9-5.6 6.9zm-35.3-13.8c1 0 2.1 0.4 2.8 1.4 0.8 1 0.7 2.6 0.7 3.9v8.1c0 0.2-0.3 0.4-0.5 0.4h-2.5c-0.2 0-0.4-0.2-0.4-0.4v-6.8c0-0.5 0-1.8-0.1-2.3-0.2-0.9-0.7-1.1-1.5-1.1-0.6 0-1.2 0.4-1.4 1-0.3 0.6-0.3 1.7-0.3 2.4v6.8c0 0.2-0.2 0.4-0.4 0.4h-2.5c-0.3 0-0.4-0.2-0.4-0.4l-0.1-6.8c0-1.4 0.3-3.5-1.5-3.5-1.5 0-1.7 1.6-1.7 3v7.3c0 0.2-0.2 0.4-0.5 0.4h-2.4c-0.3 0-0.4-0.2-0.5-0.4v-12.7c0-0.3 0.2-0.5 0.5-0.5h2.3c0.3 0.1 0.4 0.2 0.5 0.5v1.6c0.6-1.6 1.7-2.3 3.3-2.3 1.5 0 2.5 0.7 3.2 2.3 0.6-1.6 1.9-2.3 3.4-2.3zm27.7 0.7c0.3 0 0.5 0.2 0.5 0.4v1.6c0 0.2-0.2 0.6-0.6 1.1l-4.2 5.9c1.5 0 3.2 0.2 4.6 1 0.3 0.2 0.4 0.5 0.4 0.7v2c0 0.2-0.3 0.5-0.6 0.4-2.5-1.3-5.8-1.5-8.5 0-0.3 0.1-0.6-0.2-0.6-0.4v-2c0-0.3 0.1-0.7 0.3-1.1l4.9-6.9h-4.3c-0.2 0-0.4-0.2-0.4-0.5v-1.8c0-0.3 0.2-0.4 0.4-0.4zm-48.1-0.7c1.1 0 2.7 0.3 3.6 1.2 1.2 1.1 1.1 2.4 1.1 3.9v4c0 0.9 0.3 1.4 0.7 1.9l0.2 0.3c0.2 0.2 0.2 0.5 0 0.7-0.4 0.3-1.1 0.9-1.6 1.4l-0.2 0.2c-0.2 0.1-0.4 0.1-0.6 0-0.8-0.7-1-1-1.4-1.6-1.4 1.4-2.3 1.8-4.1 1.8-2 0-3.6-1.3-3.6-3.8 0-1.9 1.1-3.3 2.6-3.9 1.2-0.5 2.8-0.7 4.1-0.8h0.5v-0.4c0-0.5 0-1.2-0.3-1.7-0.3-0.4-0.9-0.6-1.4-0.6-0.9 0-1.7 0.5-1.9 1.4-0.1 0.2-0.2 0.4-0.4 0.4l-0.1 0.1-2.3-0.3c-0.2 0-0.5-0.2-0.4-0.5 0.5-2.8 3.1-3.7 5.5-3.7zm32 0c1.1 0 2.7 0.3 3.6 1.2 1.2 1.1 1.1 2.4 1.1 3.9v0.3 3.7c0 1.1 0.5 1.6 0.9 2.2 0.2 0.2 0.2 0.5 0 0.7-0.4 0.3-1.1 0.9-1.6 1.4l-0.2 0.2c-0.2 0.1-0.4 0.1-0.6 0-0.8-0.7-1-1-1.4-1.6-1.4 1.4-2.3 1.8-4.1 1.8-2 0-3.6-1.3-3.6-3.8 0-1.9 1.1-3.3 2.6-3.9 1.2-0.5 2.8-0.7 4.1-0.8h0.5v-0.4c0-0.5 0-1.2-0.3-1.7-0.3-0.4-0.9-0.6-1.4-0.6-0.9 0-1.7 0.5-1.9 1.4-0.1 0.2-0.2 0.4-0.4 0.4l-0.1 0.1-2.3-0.3c-0.2 0-0.5-0.2-0.4-0.5 0.5-2.8 3.1-3.7 5.5-3.7zm-30.7 7.2c-1.8 0-3.6 0.4-3.6 2.4 0 1 0.5 1.7 1.4 1.7 0.7 0 1.3-0.4 1.7-1.1 0.5-0.7 0.5-1.4 0.5-2.2zm32 0c-1.8 0-3.6 0.4-3.6 2.4 0 1.1 0.5 1.8 1.4 1.8 0.7 0 1.3-0.5 1.7-1.1 0.5-0.8 0.5-1.5 0.5-2.3zm22.4-4.6c-1.8 0-1.9 2.4-1.9 3.9v0.4c0 1.6 0.1 4.4 1.9 4.4 1.9 0 2-2.6 2-4.2 0-1.1 0-2.3-0.4-3.3-0.2-0.9-0.8-1.2-1.6-1.2z"/>
			</g>
			<g id="Clipped">
				<g id="Shape-Clipped">
					<g id="Layer">
					</g>
				</g>
			</g>
		</g>
		<g id="Light-Mode@1x">
		</g>
	</g>
</svg>