<svg version="1.2" xmlns="http://www.w3.org/2000/svg" viewBox="0 0 80 68" width="80" height="68">
	<title>Proyecto nuevo</title>
	<defs>
		<clipPath clipPathUnits="userSpaceOnUse" id="cp1">
			<path d="m9.3 0h62.47v76.06h-62.47z"/>
		</clipPath>
		<radialGradient id="g1" cx="0" cy="0" r="1" gradientUnits="userSpaceOnUse" gradientTransform="matrix(43.384,0,0,43.384,65.224,16.422)">
			<stop offset="0" stop-color="#01147b" stop-opacity="1"/>
			<stop offset=".025" stop-color="#011098" stop-opacity="1"/>
			<stop offset=".064" stop-color="#010abd" stop-opacity="1"/>
			<stop offset=".103" stop-color="#0006da" stop-opacity="1"/>
			<stop offset=".142" stop-color="#0003ee" stop-opacity="1"/>
			<stop offset=".179" stop-color="#0001fb" stop-opacity="1"/>
			<stop offset=".216" stop-color="#0000ff" stop-opacity="1"/>
			<stop offset="1" stop-color="#00ffff" stop-opacity="0"/>
		</radialGradient>
		<clipPath clipPathUnits="userSpaceOnUse" id="cp2">
			<path d="m36.65 58.14q-0.03 0.09-0.15 0.1h-6.16l4.99 3.61c0.04 0.03 0.12 0.05 0.18 0 1.38-0.85 2.58-1.45 5.15-2.11 0 0-3.94 2.94-6.5 6.24q-0.09 0.1-0.14 0.24l-0.54 1.64 4.97-3.61q0.1-0.07 0.18 0l4.97 3.61-1.91-5.84q-0.02-0.1 0.06-0.18l4.97-3.61h-6.15q-0.11-0.01-0.15-0.11l-1.91-5.84z"/>
		</clipPath>
		<linearGradient id="g2" x2="1" gradientUnits="userSpaceOnUse" gradientTransform="matrix(11.434,-11.438,11.442,11.438,32.127,66.516)">
			<stop offset="0" stop-color="#fa1660"/>
			<stop offset=".28" stop-color="#fa1660"/>
			<stop offset=".78" stop-color="#ff6e00"/>
			<stop offset="1" stop-color="#ff6e00"/>
		</linearGradient>
	</defs>
	<style>
		.s0 { fill: #333333 } 
		.s1 { fill: #333333 } 
		.s2 { fill: #333333 } 
		.s3 { fill: #333333 } 
		.s4 { fill: #333333 } 
	</style>
	<g id="Clip-Path" clip-path="url(#cp1)">
		<g id="Layer">
			<path id="Layer" class="s0" d="m9.3 41.6h12.6v0.3h-12.6z"/>
			<path id="Layer" fill-rule="evenodd" class="s0" d="m57.4 42.1h-1.8v1.8h-0.9v-1.8h-1.7v-0.9h1.7v-1.7h0.9v1.7h1.8zm-32.7-0.4c0-1.7 1.2-2.8 2.9-2.8q0.4 0 0.8 0v1.2q-0.4-0.1-0.7-0.1c-1.1 0-1.7 0.6-1.7 1.7 0 1 0.6 1.7 1.7 1.7q0.3 0 0.7-0.1v1.1q-0.4 0.1-0.8 0.1c-1.7 0-2.9-1.2-2.9-2.8zm7.1 2.8c-1.6 0-2.9-1.3-2.9-2.8 0-1.6 1.3-2.9 2.9-2.9 1.6 0 2.9 1.3 2.9 2.9 0 1.5-1.3 2.8-2.9 2.8zm1.6-2.8c0-1-0.8-1.7-1.6-1.7-0.9 0-1.6 0.7-1.6 1.7 0 0.9 0.7 1.6 1.6 1.6 0.8 0 1.6-0.7 1.6-1.6zm6.4-2.8h1.2v5.5h-1.2v-3.3l-1.3 2.1h-0.7l-1.3-2.2v3.4h-1.2v-5.5h1.2l1.7 2.7zm5.9 3.9c0 1-0.8 1.6-1.9 1.6h-2v-5.5h1.8c1.2 0 1.9 0.6 1.9 1.5 0 0.5-0.2 0.9-0.6 1.1 0.5 0.2 0.8 0.7 0.8 1.3zm-2.7-2.8v1.1h0.7c0.4 0 0.6-0.2 0.6-0.6 0-0.3-0.2-0.5-0.6-0.5zm0 3.3h0.8c0.4 0 0.6-0.2 0.6-0.6 0-0.3-0.2-0.6-0.6-0.6h-0.8zm5.9 1.3c-1.6 0-2.8-1.3-2.8-2.9 0-1.6 1.2-2.9 2.8-2.9 1.6 0 2.9 1.3 2.9 2.9 0 1.6-1.3 2.9-2.9 2.9zm1.6-2.9c0-0.9-0.7-1.7-1.6-1.7-0.8 0-1.6 0.8-1.6 1.7 0 0.9 0.8 1.7 1.6 1.7 0.9 0 1.6-0.8 1.6-1.7z"/>
			<path id="Layer" class="s0" d="m59.2 41.5h12.6v0.3h-12.6z"/>
			<path id="Layer" fill-rule="evenodd" class="s1" d="m37.7 22.5q0-0.1 0 0c0.6 0 1.1 0.1 1.5 0.3 0.4 0.2 0.7 0.4 0.9 0.8 0.3 0.6 0.3 1.4 0 2-0.2 0.4-0.7 0.8-1.1 1-0.4 0.3-0.9 0.4-1.4 0.4-0.8 0.1-1.8-0.1-2.5-0.4-0.5-0.3-1.1-0.7-1.3-1.2-0.3-0.3-0.2-0.8 0-1.1 0.4-0.6 1.3-0.7 1.9-0.7 0.5 0 1.4 0.2 1.9 0.4 0.1 0 0.6 0.2 0.7 0.3 0.1 0 0.1 0.1 0.1 0.2-0.1 0.3-0.9 0.5-1.2 0.5-0.6 0.1-0.9-0.1-1.6-0.4-0.2-0.1-0.4-0.1-0.6-0.2-0.3 0-0.7 0.1-0.8 0.4 0 0.2 0.2 0.4 0.4 0.5 0.4 0.1 0.7 0.2 1 0.2 1.1 0 2.4-0.2 3.3-0.8 0.1-0.1 0.2-0.2 0.2-0.4 0-0.3-0.5-0.5-0.5-0.5-0.6-0.3-1.8-0.4-2.4-0.4-0.6-0.1-1.5-0.2-1.7-0.2-0.3 0-0.5-0.1-0.7-0.2-0.2-0.1-0.4-0.3-0.5-0.5-0.1-0.4 0-0.9 0.3-1.2 0.6-0.9 2-1.2 3-1.4 1-0.1 2.7-0.1 3.7 0.5 0.1 0 0.2 0.1 0.2 0.3-0.1 0.3-0.3 0.5-0.6 0.6-0.3 0.1-0.9 0.1-1.2 0.1-1.2 0.1-2.7 0.1-3.8 0.4-0.1 0-0.2 0-0.3 0.1-0.2 0.2 0.3 0.3 0.5 0.3q0 0 0 0zm-6.6-3.7c0 0-0.1 0.2-0.2 0.3 0 0.1-0.1 0.1-0.1 0.2q-0.2 0.1-0.5-0.1c-0.2-0.1-0.3-0.4-0.3-0.7 0-0.1 0-0.3 0-0.4 0-0.1-0.2-0.3-0.3-0.5-0.1-0.2-0.2-0.5-0.2-0.7 0-0.7 0.3-1.3 0.8-1.8 0.5-0.5 1.1-0.9 1.8-1.2 0.6-0.3 1.5-0.5 2.2-0.2 0.2 0 0.5 0.2 0.7 0.4q0.1 0.1 0.1 0.1 0.1 0.1 0.2 0.1c0.2 0 0.5 0.2 0.7 0.3 0.2 0.2 0.4 0.4 0.4 0.7 0.2 0.7-0.2 1.4-0.6 1.8-0.7 0.7-1.4 1.2-2.3 1.6-0.4 0.1-1.1 0.3-1.5 0.2q-0.2 0-0.4 0c-0.1 0-0.4-0.1-0.4-0.1 0 0-0.1 0-0.1 0zm1.5-1.1q0.9-0.1 1.7-0.5c0.5-0.3 1.2-0.9 1.2-1.5-0.1-0.2-0.2-0.4-0.4-0.5-0.2-0.1-0.3 0-0.6 0-0.2 0.1-0.3 0.1-0.5 0.2-0.6 0.4-1.4 1.1-1.8 1.7-0.1 0.1-0.2 0.3-0.3 0.4-0.1 0-0.1 0.1-0.1 0.1 0 0.1 0.6 0.1 0.8 0.1zm-2.1-0.6c0 0 0.2-0.3 0.4-0.5 0.3-0.4 0.8-1 1.2-1.3 0.2-0.1 0.3-0.3 0.3-0.3 0 0-0.2 0.1-0.3 0.1-0.4 0-0.8 0.3-1 0.5-0.4 0.3-0.8 0.9-0.6 1.3 0 0.1 0 0.2 0 0.2zm1.4 3.1q0.1 0 0.1 0c0.4 0.1 0.5 0.4 0.6 0.7 0.1 0.8 0.2 2.4 0.3 3.1q0 0.7 0 1.4c0 0.4 0.1 0.9 0 1.3 0 0.2-0.1 0.3-0.3 0.4-0.1 0.1-0.5 0.1-0.6 0.1-0.5-0.1-0.7-0.4-0.7-0.9-0.2-1.1-0.1-3.2 0-4.1 0-0.3 0.1-1.3 0.3-1.7 0-0.1 0.1-0.4 0.3-0.3zm-1.4 2.3c0 0.4-0.1 1.1-0.1 1.2 0 0.2-0.2 0.6-0.2 0.7q-0.2 0.4-0.4 0.8c-0.2 0.4-0.8 1-1.1 1.3-1.2 1-3 1.6-4.6 1.8-1.1 0.1-2.3 0.1-3.4-0.1-0.4-0.1-1-0.2-1-0.2 0 0 0 0.2 0 0.4 0 0-0.1 0.2-0.1 0.3q-0.1 0.2-0.4 0.3c-0.3 0-0.5 0.1-0.7 0-0.4-0.2-0.5-0.5-0.6-0.9 0-0.3-0.1-0.9-0.1-0.9 0 0-0.3-0.1-0.5-0.2-0.7-0.4-1.3-0.8-1.9-1.2-0.2-0.1-0.9-0.7-1-0.8-0.4-0.4-0.8-0.8-1.1-1.3-0.2-0.5-0.3-0.8-0.1-1.2 0.2-0.6 1.1-1.1 1.6-1.3 0.5-0.2 1.8-0.6 2.3-0.7 0.3-0.1 0.7-0.1 0.7-0.1q0.1-0.1 0.1-0.1c0 0 0-0.6 0-0.8 0-0.2 0.1-1.6 0.2-1.9 0-0.2 0.2-0.8 0.3-0.9 0.1-0.1 0.2-0.1 0.3 0 0.6 0.3 0.8 1.7 0.9 2.4 0 0.4 0 1 0 1 0 0 0.7 0 1.2 0 0.4 0 0.9 0.1 1.4 0.2 0.5 0.1 1.7 0.3 2.3 0.6 0.5 0.3 1 0.8 1.2 1.2 0.1 0.5 0.1 0.8-0.1 1.2-0.3 0.4-0.8 0.8-1.2 0.8-0.2 0-0.7-0.1-0.9-0.2q-0.1-0.1 0-0.2c0 0 0.2-0.2 0.4-0.3q0.1 0 0.2-0.1c0.1-0.1 0.2-0.2 0.2-0.4 0-0.1-0.2-0.3-0.4-0.3-0.9-0.4-2.6-0.7-3.5-0.7-0.3 0-0.8-0.1-0.8-0.1l0.1 4.7c0 0 0.4 0.1 0.7 0.1 0.2 0.1 0.9 0.1 1.1 0.1 1.5 0.1 3.2-0.1 4.6-0.7 0.6-0.3 1.2-0.7 1.6-1.1 0.6-0.7 0.9-1.5 0.8-2.5-0.1-1-0.8-2.2-1.4-2.9-1.4-1.9-4-3.4-6.2-4.4-2.3-0.8-4.6-1.4-7-1.5-0.6 0-2 0.1-2.7 0.2q-0.1 0.1-0.2 0.1c-0.1 0-0.2 0.1-0.3 0.1q0 0 0 0c0 0 0.1 0.1 0.1 0.1 0.1 0 0.4 0 0.5 0 0.2 0.1 0.3 0.2 0.4 0.3q0.1 0.1 0 0.2c-0.2 0.2-0.8 0.2-1 0.1-0.3 0-0.6-0.1-0.7-0.3 0-0.3 0.1-0.6 0.2-0.8 0.3-0.5 0.7-0.8 1.3-0.9 0.9-0.3 1.9-0.4 2.7-0.5 1.8 0 3.6 0.3 5.3 0.8 1 0.3 2.3 0.8 3.3 1.3 0.7 0.3 1.7 0.9 2.4 1.3 0.2 0.2 1.3 1 1.5 1.1 0.3 0.3 0.8 0.8 1.2 1.1 0.6 0.7 1.5 1.7 1.9 2.5q0.1 0.3 0.3 0.6c0 0.1 0.2 0.5 0.2 0.7 0 0.1 0.1 0.3 0.1 0.3 0 0.1 0.1 0.5 0.1 0.6zm-12.7-0.5c0 0-0.7 0-1.2 0.1-0.6 0-1.7 0.2-2.4 0.5-0.2 0-0.6 0.2-0.6 0.4 0 0.2 0.1 0.4 0.2 0.5 0.1 0.2 0.6 0.6 0.7 0.7 0.6 0.5 1.7 1.2 2.5 1.5 0.3 0.2 0.8 0.3 0.8 0.3 0 0 0-1.3 0-2.6 0-0.7 0-1.4 0-1.4zm35.4-0.5c-0.8 0.2-3 0.3-3 0.3l-0.3 0.9c0 0 1.1-0.1 1.9-0.1 0 0 0.2 0 0.3 0.3 0 0.3 0 0.7 0 0.7 0 0-0.1 0.2-0.3 0.2-0.3 0.1-2.4 0.2-2.4 0.2l-0.4 1.1c0 0-0.1 0.3 0.2 0.2 0.2-0.1 2.4-0.5 2.7-0.4 0.3 0.1 0.7 0.5 0.5 0.8-0.1 0.5-2.3 1.9-3.6 1.8 0 0-0.7 0-1.3-0.9-0.5-0.9 0.2-2.6 0.2-2.6 0 0-0.3-0.8-0.1-1.1 0 0 0.2-0.1 0.6-0.1l0.6-1.2c0 0-0.7 0.1-1-0.4-0.4-0.4-0.4-0.6-0.1-0.7 0.3-0.1 2.8-0.6 4.6-0.5 0 0 0.6-0.1 1.1 1 0 0 0.3 0.4-0.2 0.5zm-6.6 4.2c-0.2 0.6-0.8 1.1-1.5 0.8-0.7-0.4-1.9-2.7-1.9-2.7 0 0-0.5-0.9-0.5-0.9 0 0-0.1-0.1-0.2 0.8-0.1 1 0 2.8-0.4 3.1-0.3 0.3-0.8 0.2-1-0.1-0.2-0.4-0.3-1.2-0.2-2.6 0.2-1.4 0.5-2.9 0.9-3.4 0.4-0.5 0.8-0.1 0.9 0 0 0 0.6 0.5 1.5 2l0.2 0.3c0 0 0.8 1.4 0.9 1.4 0 0 0.1 0.1 0.1 0 0.1 0 0.1-0.4 0.1-0.4 0 0-0.2-1.6-1-4.2 0 0-0.1-0.3 0-0.6 0.1-0.4 0.4-0.2 0.4-0.2 0 0 1.2 0.6 1.8 2.5 0.6 2 0.2 3.7-0.1 4.2zm12.9-1.1c-0.5 0.9-2.1 2.9-4.1 2.5-0.7 1.6-1.2 3.2-1.6 5.7 0 0 0 0.5-0.4 0.3-0.4-0.1-1.1-0.8-1.2-1.7-0.1-1.2 0.4-3.2 1.5-5.5-0.3-0.5-0.6-1.3-0.4-2.3 0 0 0.3-2 2.3-3.7 0 0 0.2-0.2 0.3-0.2 0.2 0.1 0.1 0.7 0 1-0.1 0.3-1 1.9-1 1.9 0 0-0.5 1-0.4 1.8 1.1-1.6 3.4-4.8 4.8-3.8 0.5 0.4 0.7 1.1 0.7 1.9 0 0.7-0.1 1.5-0.5 2.1zm-0.4-2.5c0 0-0.1-0.7-0.7 0-0.5 0.6-1.5 1.7-2.2 3.2 0.8-0.1 1.5-0.5 1.8-0.7 0.4-0.4 1.3-1.3 1.1-2.5zm12 0.1v0.8c0 0.2-0.2 0.3-0.3 0.3h-3.7q0 0.3 0 0.5c0 1.2-0.1 2.1-0.2 3.2 0 0.1-0.1 0.2-0.3 0.2h-0.8q-0.1 0-0.2-0.1-0.1-0.1 0-0.2c0.1-1 0.1-1.9 0.1-3.1q0-0.2 0-0.5h-3.6c-0.2 0-0.3-0.1-0.3-0.3v-0.8c0-0.1 0.1-0.3 0.3-0.3h3.6c-0.1-1.2-0.3-2.5-0.5-3.7q0-0.1 0-0.2 0.1-0.1 0.2-0.1h0.9c0.1 0 0.2 0.1 0.3 0.2q0.3 1.9 0.4 3.8h3.8c0.2 0 0.3 0.2 0.3 0.3z"/>
			<path id="Layer" class="s2" d="m66 16.1c-1.9-4.7-5.1-8.7-9.3-11.6-4.3-3-9.4-4.5-14.6-4.5-8.7 0-16.7 4.3-21.5 11.5q-0.1 0.1 0 0.3 0 0.1 0.2 0.1l0.6 0.3q0.1 0 0.2 0 0.1 0 0.3-0.2c2.2-3.2 5.2-5.9 8.6-7.7 3.5-2 7.6-3 11.6-3 4.9 0 9.6 1.5 13.7 4.2 3.9 2.7 7 6.4 8.8 10.7q0.1 0.2 0.4 0.2h0.8q0.1 0 0.2-0.1c0-0.1 0.1-0.2 0-0.2z"/>
			<g id="Clip-Path" clip-path="url(#cp2)">
				<g id="Layer">
					<path id="Layer" class="s3" d="m38.6 76.1l15.9-16-15.9-16-16.1 16z"/>
				</g>
			</g>
			<path id="Layer" class="s4" d="m68.8 59.5h-3.9v-3.9h-2.1v3.9h-3.9v2h3.9v3.8h2.1v-3.8h3.9z"/>
			<path id="Layer" fill-rule="evenodd" class="s4" d="m56.8 66.7h-3.2l-3.2-4.9v4.9h-2.8v-12.4h4.4c2.7 0 4.4 1.4 4.4 3.8 0 1.9-1.4 3.4-3.1 3.6zm-6.5-9.9v2.9h1.6c1 0 1.7-0.6 1.7-1.5 0-0.9-0.7-1.4-1.7-1.4zm-19 0.1h-2.7v9.8h-2.8v-9.8h-2.7v-2.5h8.2zm-11.7 2.7c1.8 0.9 2.7 2 2.7 3.7 0 2.1-1.8 3.6-4.2 3.6-2.2 0-3.8-1.2-4.4-3.2l2.5-0.7c0.4 1 1.1 1.5 1.9 1.5 0.8 0 1.4-0.5 1.4-1.2 0-0.7-0.5-1.1-1.4-1.5l-1.6-0.9c-1.7-0.8-2.3-1.9-2.3-3.2 0-2 1.6-3.5 3.8-3.5 2.1 0 3.4 1 4.1 2.7l-2.4 1c-0.3-0.9-0.8-1.3-1.5-1.3-0.8 0-1.3 0.5-1.3 1.1 0 0.5 0.3 0.9 1.1 1.2z"/>
		</g>
	</g>
</svg>