<svg version="1.2" xmlns="http://www.w3.org/2000/svg" viewBox="0 0 80 68" width="80" height="68">
	<title>Proyecto nuevo</title>
	<defs>
		<clipPath clipPathUnits="userSpaceOnUse" id="cp1">
			<path d="m9.82 9.75h61.37v24.82h-61.37z"/>
		</clipPath>
		<clipPath clipPathUnits="userSpaceOnUse" id="cp2">
			<path d="m9.82 9.75h61.37v24.82h-61.37z"/>
		</clipPath>
		<clipPath clipPathUnits="userSpaceOnUse" id="cp3">
			<path d="m78.01 37.14h2.55v1.01h-2.55z"/>
		</clipPath>
		<clipPath clipPathUnits="userSpaceOnUse" id="cp4">
			<path d="m78.01 37.14h2.55v1.01h-2.55z"/>
		</clipPath>
	</defs>
	<style>
		.s0 { fill: #333333 } 
		.s1 { fill: #333333 } 
	</style>
	<g id="Artboard">
		<g id="ic_hbo_2_100x100">
			<path id="Fill-11-Copy" class="s0" d="m22.2 36.3c-2.6 0-4.9 0.9-6.5 2.7-1.6-1.8-4-2.7-6.6-2.7-4.8 0-8.6 3-8.8 8.8 0 0 0 13 0 13 0 1.2 1 2.2 2.1 2.2h2c0.2 0 0.3-0.2 0.3-0.4v-14.8c0.1-2.8 2-4.3 4.4-4.3 2.4 0 4.3 1.5 4.4 4.3v12.9c0 1.2 0.9 2.3 2.1 2.3h2c0.2 0 0.3-0.2 0.3-0.4v-14.8c0.1-2.8 2-4.3 4.4-4.3 2.3 0 4.2 1.4 4.3 4.3v13c0 1.1 1 2.2 2.1 2.2h2c0.2 0 0.3-0.3 0.3-0.4 0 0 0-14.9 0-14.9-0.1-5.7-4-8.7-8.8-8.7z"/>
			<path id="Fill-13-Copy" class="s0" d="m77 36.6c0.1-0.2 0-0.3-0.1-0.3h-3.5c-0.8 0-1.5 0.1-2.2 1.1l-3.6 5.5c-0.2 0.5-0.6 1-1.2 1-0.6 0-1-0.5-1.2-1l-3.6-5.5c-0.7-1-1.4-1.1-2.2-1.1h-3.5c-0.1 0-0.2 0.1-0.1 0.3l6.8 10.6q0.2 0.5 0.2 1.1 0 0.5-0.2 1l-6.8 10.7c-0.1 0.1 0 0.3 0.1 0.3h3.5c0.8 0 1.5-0.2 2.2-1.2l3.6-5.5c0.2-0.5 0.6-1 1.2-1 0.6 0 1 0.5 1.2 1l3.6 5.5c0.7 1 1.4 1.2 2.2 1.2l3.5-0.1c0.1 0 0.2-0.1 0.1-0.2l-6.8-10.7q-0.3-0.5-0.2-1-0.1-0.6 0.2-1.1z"/>
			<path id="Fill-14-Copy" fill-rule="evenodd" class="s0" d="m54.1 37v22.8c0 0.2-0.1 0.3-0.3 0.3h-2c-1.1 0-2-0.8-2.1-1.9-1.5 1.2-3.9 2.1-6.3 2.1-6.2 0-10.6-4.6-10.6-12 0-7.4 4.3-12 10.7-12 2.1 0 4.6 0.6 6.6 2.4l0.5-1c0.4-0.6 1.1-1 1.8-1h1.4c0.2 0 0.3 0.1 0.3 0.3zm-4.2 11.3c0-4.9-2.7-7.7-6.4-7.7-3.7 0-6.4 2.8-6.4 7.7 0 4.8 2.7 7.7 6.4 7.7 3.7 0 6.4-2.9 6.4-7.7z"/>
			<g id="Group-18-Copy">
				<g id="Fill-15-Clipped">
					<g id="path-1">
					</g>
					<g id="Clip-Path: Fill-15" clip-path="url(#cp1)">
						<path id="Fill-15" class="s0" d="m16.7 24.9h4.3v9.7h6.7v-24.9h-6.7v9.3h-4.3v-9.3h-6.9v24.9h6.9v-9.7"/>
					</g>
				</g>
				<g id="Fill-17-Clipped">
					<g id="path-1">
					</g>
					<g id="Clip-Path: Fill-17" clip-path="url(#cp2)">
						<path id="Fill-17" fill-rule="evenodd" class="s0" d="m40.1 34.5h-10.7v-24.3h11.4c3.6 0 6.6 3.5 6.6 6.6 0.9-2.1 4.4-7.1 11.3-7.1 6.9 0.1 12.5 5.5 12.5 12.4 0 6.8-5.6 12.5-12.5 12.5-6.9 0-10.3-5-11.3-7 0 3.2-3 6.9-7.3 6.9zm-4.3-14.8h3.4c1 0 1.7-1 1.7-2.1 0-1.1-0.7-2-1.7-2h-3.4zm7.9 2.4c0.8 0.1 2 1.1 2.5 1.9-0.2-0.7-0.1-2.7 0-3.4-0.4 0.5-1.7 1.4-2.5 1.5zm21.3 0c0-3.4-2.9-6.2-6.3-6.2-3.5 0-6.3 2.8-6.3 6.2 0 3.4 2.8 6.2 6.3 6.2 3.4 0 6.3-2.8 6.3-6.2zm-25.8 6.7c1 0 1.7-1 1.7-2.1 0-1.1-0.7-2-1.7-2h-3.4v4.1z"/>
					</g>
				</g>
			</g>
			<path id="Fill-19-Copy" class="s0" d="m58.7 26.9c-2.6 0-4.7-2.1-4.7-4.7 0-2.6 2.1-4.7 4.7-4.7 2.6 0 4.7 2.1 4.7 4.7 0 2.6-2.1 4.7-4.7 4.7z"/>
			<g id="Group-23-Copy">
				<g id="Fill-20-Clipped">
					<g id="path-3">
					</g>
					<g id="Clip-Path: Fill-20" clip-path="url(#cp3)">
						<path id="Fill-20" class="s1" d="m78 37.3h0.3v0.9h0.2v-0.9h0.4v-0.2h-0.9v0.2"/>
					</g>
				</g>
				<g id="Fill-22-Clipped">
					<g id="path-3">
					</g>
					<g id="Clip-Path: Fill-22" clip-path="url(#cp4)">
						<path id="Fill-22" class="s1" d="m79.5 37.1l-0.2 0.5-0.2-0.5h-0.2v1.1h0.2v-0.6l0.2 0.4 0.2-0.4v0.6h0.2v-1.1h-0.2"/>
					</g>
				</g>
			</g>
		</g>
	</g>
</svg>