<svg version="1.2" xmlns="http://www.w3.org/2000/svg" viewBox="0 0 80 68" width="80" height="68">
	<title>Proyecto nuevo</title>
	<style>
		.s0 { fill: #333333 } 
	</style>
	<g id="Artboard-Copy">
		<g id="Logos/Branded-Products/Tigo-OneTV/Light-Mode-Copy-2">
			<g id="Group">
				<path id="Borde-Exterior" fill-rule="evenodd" class="s0" d="m8.3 13.3c0-6 5-11 11-11h41.4c6 0 11 5 11 11v41.4c0 6-5 11-11 11h-41.4c-6 0-11-5-11-11zm1.4 40.9c0 5.5 4.5 10 10 10h40.6c5.5 0 10-4.5 10-10v-40.6c0-5.5-4.5-10-10-10h-40.6c-5.5 0-10 4.5-10 10z"/>
				<path id="Stroke" class="s0" d="m70.7 43.5c-8.7 0.9-18.8 1.6-30.1 1.6-12.4 0-22.9-0.8-31.3-1.8l-0.1 1.3 1.3 0.2c8.1 1 18.3 1.6 30.1 1.6 11.3 0 21.5-0.6 30.2-1.6z"/>
				<g id="ONEtv">
					<path id="Fill-11" fill-rule="evenodd" class="s0" d="m24.1 60.3c-2.7 0-4.9-2.2-4.9-5 0-2.7 2.2-4.9 4.9-4.9 2.8 0 5 2.2 5 4.9 0 2.8-2.2 5-5 5zm4.1-5c0-2.2-1.8-4-4.1-4-2.2 0-4 1.8-4 4 0 2.3 1.8 4.1 4 4.1 2.3 0 4.1-1.8 4.1-4.1zm31.2-2.8l-3.3 7.7h-1l-2.8-6.7h-2.5v4.5c0 0.7 0.5 1.2 1.2 1.2h0.5v1.1h-0.5c-1.3 0-2.3-1-2.3-2.3v-4.5h-1.5v-1h1.5v-2.1h1.1v2.1h3.3l2.5 6.3 2.6-6.3zm-19.3 6.7h5.2v0.9h-6.2v-9.6h6.1v0.9h-5.1v3.3h4.5v0.9h-4.5zm-3.7-8.8h1v9.7h-0.9l-0.1-0.1-5.1-7.7v7.8h-1v-9.7h0.9l0.1 0.1 5.1 7.8z"/>
					<path id="Fill-13" fill-rule="evenodd" class="s0" d="m23.5 53.5l2.5 1.6c0.1 0.1 0.2 0.3 0.1 0.5q0 0-0.1 0.1l-2.5 1.5c-0.2 0.1-0.4 0.1-0.5-0.1q0 0 0-0.1v-3.2c0-0.2 0.1-0.3 0.3-0.3q0.1 0 0.2 0z"/>
				</g>
				<path id="Tigo" fill-rule="evenodd" class="s0" d="m39.2 31.3c1.6 2.2 4.2 4.1 7.6 4.1 3.7 0 6.2-1.9 7.6-4.1h0.1v1.5c0 0.6-0.3 1.4-0.6 2-0.9 1.7-3.9 3.8-7.1 3.8-3.2 0-5.7-1.7-7-3.6-0.4-0.6-0.7-1.6-0.7-2.3v-1.4zm3.7-14.8c2.4 0 3.5 1.3 3.5 2.5v1h-0.4l-0.1-0.1c-0.7-0.5-2-0.9-3.3-0.9-2.2 0-3.7 1.5-3.7 3.5 0 3.2 2 3.8 3.7 3.8 1.1 0 1.2-0.4 1.2-0.8v-1q0-0.8-0.2-1.6v-0.3h1.5c0.8 0 1.5 0.6 1.5 1.3v1.8c0 2.1-1.4 3.1-4.3 3.1-3.2 0-6.4-2-6.4-6 0-3.7 2.9-6.3 7-6.3zm5.5-2.6q0-0.6 0.4-1.2c0.6-1 2.5-2.2 4.7-2.2 2.1 0 3.9 1 4.8 2.1q0.4 0.7 0.4 1.4v1.2c-1.1-1.3-2.7-2.5-5-2.5-2.5 0-4.3 1.2-5.2 2.5h-0.1zm-0.6 8.7c0-3.5 2-6.2 5.8-6.2 3.4 0 5.4 2.7 5.4 5.8 0 3.5-2 6.2-5.7 6.2-3.5 0-5.5-2.7-5.5-5.8zm8.2-0.2c0-1.9-1.1-3.5-2.6-3.5-1.4 0-2.6 1.6-2.6 3.5 0 1.9 1.2 3.4 2.6 3.4 1.5 0 2.6-1.5 2.6-3.4zm-26.1 2.3v-7.8h0.9c1.3 0 2 0.7 2 2.1v5.4c0 1.2 0.5 1.5 1.8 1.5h0.5v0.6c0 1.3-0.5 1.8-1.7 1.8-2.2 0-3.5-1.3-3.5-3.6zm-0.2-10.6c0-0.9 0.7-1.7 1.7-1.7 0.9 0 1.6 0.8 1.7 1.7-0.1 0.9-0.8 1.7-1.7 1.7-1 0-1.7-0.8-1.7-1.7zm-7.8 0.7c0.3-0.4 0.9-0.8 1.3-0.8h0.7v2.6h4v1.2c0 0.6-0.6 1.4-1.7 1.4h-2.3v4.5c0 1.5 0.6 2.1 1.8 2.1q1.4 0 2.1-0.5h0.1v1.1c0 1.2-0.9 1.9-2.6 1.9-2.9 0-4.3-1.6-4.3-4.3v-6.9c0-1.1 0.2-1.6 0.9-2.3z"/>
			</g>
		</g>
	</g>
</svg>