<svg version="1.2" xmlns="http://www.w3.org/2000/svg" viewBox="0 0 80 68" width="80" height="68">
	<title>ic-phone-svg</title>
	<style>
		.s0 { fill: #333333 } 
		.s1 { fill: #333333 } 
		.s2 { fill: none } 
	</style>
	<path id="Layer" fill-rule="evenodd" class="s0" d="m55.8 0.2c2.3 0 4.9 1.5 6 3.4l15.9 27c1.1 1.9 1.1 4.9 0 6.8l-15.9 27c-1.1 1.9-3.7 3.4-6 3.4h-31.6c-2.3 0-4.9-1.5-6-3.4l-15.9-27c-1.1-1.9-1.1-4.9 0-6.8l15.9-27c1.1-1.9 3.7-3.4 6-3.4zm-35.7 4.6l-15.8 27c-0.7 1.2-0.7 3.2 0 4.4l15.8 27c0.7 1.2 2.6 2.3 4 2.3h31.7c1.4 0 3.2-1.1 3.9-2.3l15.9-27c0.7-1.1 0.7-3.2 0-4.4l-15.9-27c-0.7-1.2-2.5-2.3-3.9-2.3h-31.7c-1.4 0-3.3 1.1-4 2.3z"/>
	<g id="Light_Theme">
		<path id="Layer" fill-rule="evenodd" class="s1" d="m62 20.9v26.3c0 1.8-1.4 3.4-3.2 3.6 0 0-38 0-38.2 0 0 0-0.2 0-0.4 0-1.8-0.2-3.2-1.8-3.2-3.6v-26.3c0-2 1.6-3.6 3.6-3.6h37.8c2 0 3.6 1.6 3.6 3.6zm-2.7 0.9l-13.7 13.1 13.5 13c0.2-0.2 0.4-0.4 0.4-0.7zm-39.6 26.3l13.5-13-13.7-13.1v25.2c0 0.3 0.2 0.7 0.2 0.9zm38.1-28.3h-36.7l16.6 15.8c0.9 1.1 2.5 1.1 3.6 0zm-34.6 28.7h32.4l-11.9-11.6-0.7 0.8c-2 1.9-5.2 1.9-7.2 0l-0.7-0.8z"/>
	</g>
	<g id="Marco">
		<path id="Layer" class="s2" d="m17 17.3h45v33.7h-45z"/>
	</g>
</svg>