<svg version="1.2" xmlns="http://www.w3.org/2000/svg" viewBox="0 0 80 68" width="80" height="68">
	<title>ic-tv-svg</title>
	<style>
		.s0 { fill: #ffffff } 
	</style>
	<path id="Layer" fill-rule="evenodd" class="s0" d="m55.8 0.2c2.2 0 4.8 1.4 6 3.4l15.8 27c1.2 2 1.2 5 0 6.8l-15.8 27c-1.2 2-3.8 3.4-6 3.4h-31.6c-2.2 0-5-1.4-6-3.4l-15.8-27c-1.2-2-1.2-5 0-6.8l15.8-27c1-2 3.8-3.4 6-3.4zm-35.6 4.6l-16 27c-0.6 1.2-0.6 3.2 0 4.4l16 27c0.6 1.2 2.4 2.4 3.8 2.4h31.8c1.4 0 3.2-1.2 4-2.4l15.8-27c0.6-1.2 0.6-3.2 0-4.4l-15.8-27c-0.8-1.2-2.6-2.2-4-2.2h-31.8c-1.4 0-3.2 1-3.8 2.2z"/>
	<path id="Layer" fill-rule="evenodd" class="s0" d="m54.8 51.6c0.6 0 1.2 0.6 1.2 1.2 0 0.6-0.6 1-1.2 1.2h-28.2c-0.4 0-1-0.2-1.2-0.6q-0.3-0.6 0-1.2c0.2-0.4 0.8-0.6 1.2-0.6zm5.4-33.4c1.6 0 2.8 1.4 2.8 3v23.6c0 1.6-1.2 2.8-2.8 2.8h-16.4c0 0.1 0 1.9 0 2q-0.2 0.2-0.4 0.2h-5.6c-0.2 0-0.4-0.2-0.4-0.6l-0.2-1.6h-16c-1.6 0-3-1.2-3-2.8v-23.6c0-1.6 1.4-3 3-3zm0.4 24h-40v2.6c0 0.2 0.2 0.4 0.4 0.4h39.2c0.2 0 0.4-0.2 0.4-0.4zm-0.4-21.6h-39.2c-0.2 0-0.4 0.2-0.4 0.6v18.6h40v-18.6c0-0.4-0.2-0.6-0.4-0.6z"/>
</svg>